<svg width="47" height="45" viewBox="0 0 47 45" fill="none" xmlns="http://www.w3.org/2000/svg">
<path d="M18.0651 18.2289C16.6557 14.9558 15.0936 8.27818 10.2904 9.88833C5.93862 11.3471 3.69649 14.9713 4.35653 19.5908C5.19489 25.4584 8.32553 30.9081 11.8982 35.4946C14.6264 38.254 16.2707 39.3811 19.9555 41.658" stroke="#5B6460" stroke-linecap="round" stroke-linejoin="round"/>
<path d="M17.6869 18.2073C19.6156 13.3616 21.7572 9.25837 26.3258 6.65531C27.6589 5.89576 30.481 4.95781 32.0894 5.23607C33.8427 5.53939 35.7767 7.03866 36.5912 8.51328C37.7336 10.5815 38.2004 12.16 38.0261 14.5719C37.8303 17.2822 37.0004 19.8763 35.7784 22.2989C34.1415 25.544 31.61 28.4769 29.2746 31.2326C26.2559 34.7944 22.9404 38.0427 19.9841 41.655" stroke="#5B6460" stroke-linecap="round" stroke-linejoin="round"/>
</svg>
