<?xml version="1.0" standalone="no"?>
<!DOCTYPE svg PUBLIC "-//W3C//DTD SVG 1.1//EN" "http://www.w3.org/Graphics/SVG/1.1/DTD/svg11.dtd" >
<svg>
<metadata>
Created by FontForge 20090914 at Sun Sep  5 16:19:39 2021
 By www-data
\251 Dutch Design: Albert-Jan Pool, 1995. Published by FontShop International FontFont release 15
</metadata>
<defs>
<font id="DIN-Medium" horiz-adv-x="533" >
  <font-face 
    font-family="DIN"
    font-weight="500"
    font-stretch="normal"
    units-per-em="1000"
    panose-1="2 0 6 3 4 0 0 2 0 4"
    ascent="800"
    descent="-200"
    x-height="507"
    cap-height="712"
    bbox="-110 -211.002 1138 1000"
    underline-thickness="70"
    underline-position="-102"
    unicode-range="U+0020-U+FB02"
  />
<missing-glyph horiz-adv-x="1000" 
 />
    <glyph glyph-name=".notdef" horiz-adv-x="1000" 
 />
    <glyph glyph-name="space" unicode=" " horiz-adv-x="240" 
 />
    <glyph glyph-name="exclam" unicode="!" horiz-adv-x="332" 
d="M245 712h-124l22 -500h80zM239 0v109h-112v-109h112z" />
    <glyph glyph-name="quotedbl" unicode="&#x22;" horiz-adv-x="444" 
d="M366 521v191h-101v-191h101zM179 521v191h-101v-191h101z" />
    <glyph glyph-name="numbersign" unicode="#" horiz-adv-x="672" 
d="M623 426v94h-78l31 196h-106l-31 -196h-136l31 196h-107l-31 -196h-95v-94h81l-20 -124h-94v-94h79l-33 -208h107l32 208h137l-33 -208h106l33 208h94v94h-79l20 124h92zM424 426l-19 -124h-137l20 124h136z" />
    <glyph glyph-name="dollar" unicode="$" horiz-adv-x="608" 
d="M556 203c0 30.667 -4.83008 58.333 -14.4971 83s-24.167 45.667 -43.5 63c-15.333 13.333 -33 24.166 -53 32.499s-46.667 15.166 -80 20.499l-34 5v216c25.333 -2 49.166 -7.33301 71.499 -16s42.166 -21.334 59.499 -38.001l69 68c-27.333 25.333 -56 44.333 -86 57
s-65 20.334 -105 23.001v89h-82v-90c-64.667 -6 -114.834 -27.667 -150.501 -65s-53.5 -84.666 -53.5 -141.999s17.667 -102.666 53 -135.999c14.667 -13.333 33.5 -25.333 56.5 -36s48.833 -17.667 77.5 -21l26 -3v-222c-32 1.33301 -61.5 7 -88.5 17s-52.5 27 -76.5 51
l-72 -71c32 -32 66 -55.167 102 -69.5s78 -22.5 126 -24.5v-108h82v111c32 2.66699 61.333 9.5 88 20.5s49.5 25.167 68.5 42.5s33.667 38 44 62s15.5 51 15.5 81zM267.003 413.999c-15.333 2 -30 5.66797 -44 11.001s-26.333 12.666 -37 21.999
c-9.33301 8.66699 -16.166 18.5 -20.499 29.5s-6.5 23.167 -6.5 36.5c0 29.333 9.16699 54 27.5 74s45.166 31.667 80.499 35v-208zM449.003 200c0 -31.333 -10.333 -56.167 -31 -74.5s-49.667 -29.166 -87 -32.499v212c17.333 -2.66699 33.333 -5.5 48 -8.5
s28.667 -10.5 42 -22.5c18.667 -16.667 28 -41.334 28 -74.001z" />
    <glyph glyph-name="percent" unicode="%" horiz-adv-x="842" 
d="M784 130v101c0 21.333 -3.66699 40.5 -11 57.5s-17.333 31.333 -30 43s-27.5 20.667 -44.5 27s-35.167 9.5 -54.5 9.5s-37.5 -3.16699 -54.5 -9.5s-31.833 -15.333 -44.5 -27s-22.667 -26 -30 -43s-11 -36.167 -11 -57.5v-101c0 -21.333 3.66699 -40.5 11 -57.5
s17.333 -31.333 30 -43s27.5 -20.667 44.5 -27s35.167 -9.5 54.5 -9.5s37.5 3.16699 54.5 9.5s31.833 15.333 44.5 27s22.667 26 30 43s11 36.167 11 57.5zM629 712h-81l-336 -712h82zM338 481v101c0 21.333 -3.66699 40.5 -11 57.5s-17.333 31.333 -30 43
s-27.5 20.667 -44.5 27s-35.167 9.5 -54.5 9.5s-37.5 -3.16699 -54.5 -9.5s-31.833 -15.333 -44.5 -27s-22.667 -26 -30 -43s-11 -36.167 -11 -57.5v-101c0 -21.333 3.66699 -40.5 11 -57.5s17.333 -31.333 30 -43s27.5 -20.5 44.5 -26.5s35.167 -9 54.5 -9s37.5 3 54.5 9
s31.833 14.833 44.5 26.5s22.667 26 30 43s11 36.167 11 57.5zM707 133c0 -22.667 -5.16699 -40.3301 -15.5 -52.9971s-26.166 -19 -47.499 -19s-37.166 6.16699 -47.499 18.5s-15.5 30.166 -15.5 53.499v95c0 23.333 5.16699 41.166 15.5 53.499s26.166 18.5 47.499 18.5
s37.166 -6.33301 47.499 -19s15.5 -30.334 15.5 -53.001v-95zM261 484.004c0 -22.667 -5.16602 -40.165 -15.499 -52.498s-26.166 -18.5 -47.499 -18.5c-42 0 -63 23.667 -63 71v95c0 23.333 5.16699 41.166 15.5 53.499s26.166 18.5 47.499 18.5
s37.166 -6.33301 47.499 -19s15.5 -30.334 15.5 -53.001v-95z" />
    <glyph glyph-name="ampersand" unicode="&#x26;" horiz-adv-x="730" 
d="M684 0l-119 142c24 28 41.5 60 52.5 96s17.167 77 18.5 123h-98c-0.666992 -32.667 -3.83398 -60 -9.50098 -82s-15.167 -42.333 -28.5 -61l-150 179l21 15l21.5 14.5c5.66699 3.66699 8.83398 5.83398 9.50098 6.50098c22.667 15.333 41 33.166 55 53.499
s21 44.5 21 72.5c0 22.667 -4 43.667 -12 63s-19.5 36.166 -34.5 50.499s-32.833 25.5 -53.5 33.5s-43.667 12 -69 12c-26.667 0 -50.667 -4 -72 -12s-39.5 -19 -54.5 -33s-26.667 -30.667 -35 -50s-12.5 -40.333 -12.5 -63c0 -16.667 2.33301 -32.167 7 -46.5
s10.667 -27.833 18 -40.5s15.333 -24.5 24 -35.5l25 -30.5c-17.333 -11.333 -34.5 -23.666 -51.5 -36.999s-32.167 -28 -45.5 -44s-24 -33.833 -32 -53.5s-12 -41.834 -12 -66.501c0 -64.667 19.667 -116.167 59 -154.5s96.333 -57.5 171 -57.5
c26.667 0 50.5 2.66699 71.5 8s39.5 12 55.5 20s29.667 16.333 41 25s21 16.334 29 23.001l58 -70h131zM380 558c0 -16.667 -5.16504 -30.834 -15.498 -42.501s-22.5 -22.167 -36.5 -31.5c-0.666992 -0.666992 -2.83398 -2.16699 -6.50098 -4.5s-8.33398 -5.5 -14.001 -9.5
s-10.167 -7 -13.5 -9c-18 21.333 -31.667 39.333 -41 54s-14 29.334 -14 44.001c0 20 6.16699 36.667 18.5 50s29.5 20 51.5 20c21.333 0 38.5 -6.83301 51.5 -20.5s19.5 -30.5 19.5 -50.5zM434.002 142c-23.333 -21.333 -45.833 -35.834 -67.5 -43.501
s-44.5 -11.5 -68.5 -11.5c-37.333 0 -68.166 11.167 -92.499 33.5s-36.5 51.5 -36.5 87.5c0 16.667 2.5 31.334 7.5 44.001s12 24.167 21 34.5s19.167 20 30.5 29s23.666 18.167 36.999 27.5z" />
    <glyph glyph-name="quotesingle" unicode="'" horiz-adv-x="257" 
d="M179 521v191h-101v-191h101z" />
    <glyph glyph-name="parenleft" unicode="(" horiz-adv-x="317" 
d="M259 -25l-31.5 31.501c-9 9 -17.167 20.5 -24.5 34.5c-10 18.667 -15 46 -15 82v466c0 35.333 5 62.666 15 81.999c7.33301 14 15.5 25.5 24.5 34.5l31.5 31.5l-69 69l-45 -46c-14 -14.667 -26 -31 -36 -49c-10.667 -18.667 -17.167 -37.667 -19.5 -57s-3.5 -39 -3.5 -59
v-478c0 -20 1.16699 -39.667 3.5 -59s8.83301 -38.333 19.5 -57c10 -18 22 -34.333 36 -49l45 -46z" />
    <glyph glyph-name="parenright" unicode=")" horiz-adv-x="317" 
d="M232 117v478c0 20 -1.33301 39.667 -4 59s-9.33398 38.333 -20.001 57c-10 18 -21.833 34.333 -35.5 49l-44.5 46l-70 -70l31 -31.5c8.66699 -9 16.667 -20.5 24 -34.5c10 -19.333 15 -46.333 15 -81v-466c0 -35.333 -5 -62.333 -15 -81
c-7.33301 -14 -15.333 -25.5 -24 -34.5l-31 -31.5l70 -70l44.5 46c13.667 14.667 25.5 31 35.5 49c10.667 18.667 17.334 37.667 20.001 57s4 39 4 59z" />
    <glyph glyph-name="asterisk" unicode="*" horiz-adv-x="485" 
d="M424 466l-115 61l115 62l-37 65l-111 -69l4 130h-75l4 -130l-111 69l-37 -65l115 -62l-115 -61l37 -65l111 69l-4 -131h75l-4 131l111 -69z" />
    <glyph glyph-name="plus" unicode="+" 
d="M482 225v95h-168v167h-95v-167h-168v-95h168v-168h95v168h168z" />
    <glyph glyph-name="comma" unicode="," horiz-adv-x="272" 
d="M194 -60v176h-116v-271z" />
    <glyph glyph-name="hyphen" unicode="-" horiz-adv-x="426" 
d="M359 230v95h-292v-95h292z" />
    <glyph glyph-name="period" unicode="." horiz-adv-x="278" 
d="M200 0v122h-122v-122h122z" />
    <glyph glyph-name="slash" unicode="/" horiz-adv-x="380" 
d="M383 786h-98l-285 -860h98z" />
    <glyph glyph-name="zero" unicode="0" 
d="M472 198v316c0 32 -5.5 60.5 -16.5 85.5s-25.833 46.333 -44.5 64s-40.5 31.167 -65.5 40.5s-51.5 14 -79.5 14s-54.5 -4.66699 -79.5 -14s-46.833 -22.833 -65.5 -40.5s-33.334 -39 -44.001 -64s-16 -53.5 -16 -85.5v-316c0 -32 5.33301 -60.5 16 -85.5
s25.334 -46.333 44.001 -64s40.5 -31.167 65.5 -40.5s51.5 -14 79.5 -14s54.5 4.66699 79.5 14s46.833 22.833 65.5 40.5s33.5 39 44.5 64s16.5 53.5 16.5 85.5zM370 201c0 -34.667 -9.16699 -62.667 -27.5 -84s-43.833 -32 -76.5 -32s-58 10.667 -76 32s-27 49.333 -27 84
v310c0 34.667 9 62.667 27 84s43.333 32 76 32s58.167 -10.667 76.5 -32s27.5 -49.333 27.5 -84v-310z" />
    <glyph glyph-name="one" unicode="1" 
d="M355 0v712h-102l-139 -120v-113l139 122v-601h102z" />
    <glyph glyph-name="two" unicode="2" 
d="M477 0l-0.00292969 91.001h-290l223 273c22 26.667 38.667 51.167 50 73.5s17 49.166 17 80.499c0 30.667 -5 58.334 -15 83.001s-24 45.667 -42 63s-39.667 30.666 -65 39.999s-53.333 14 -84 14c-30 0 -57.667 -4.83301 -83 -14.5s-47.166 -23.167 -65.499 -40.5
s-32.666 -38.5 -42.999 -63.5s-15.5 -52.5 -15.5 -82.5h102c0 20 3 37 9 51s13.833 25.333 23.5 34s20.834 15 33.501 19s25.667 6 39 6c33.333 0 59 -10 77 -30s27 -46 27 -78c0 -18 -3 -34.167 -9 -48.5s-15.667 -29.833 -29 -46.5l-274 -333v-91h414z" />
    <glyph glyph-name="three" unicode="3" 
d="M478 200c0 44 -9.00293 79.6689 -27.0029 107.002s-42.333 47.666 -73 60.999c28 13.333 49.833 32.5 65.5 57.5s23.5 56.5 23.5 94.5c0 29.333 -5.16699 56.166 -15.5 80.499s-24.666 45.333 -42.999 63s-40.166 31.334 -65.499 41.001s-53 14.5 -83 14.5
c-28.667 0 -55.334 -4.5 -80.001 -13.5s-46.334 -21.833 -65.001 -38.5s-33.667 -37 -45 -61s-17.666 -51 -18.999 -81h102c2.66699 32 13.334 57 32.001 75s43.667 27 75 27c29.333 0 54.166 -9.33301 74.499 -28s30.5 -46 30.5 -82
c0 -32.667 -8.66699 -58.834 -26 -78.501s-44.666 -29.5 -81.999 -29.5h-17v-89h17c40 0 69.833 -10.5 89.5 -31.5s29.5 -49.5 29.5 -85.5c0 -38 -11 -67.167 -33 -87.5s-49.667 -30.5 -83 -30.5c-14.667 0 -28.834 2 -42.501 6s-25.667 10.5 -36 19.5s-19 20.167 -26 33.5
s-10.833 29.666 -11.5 48.999h-102c0.666992 -34.667 7.16699 -64.667 19.5 -90s28.5 -46.166 48.5 -62.499s42.833 -28.333 68.5 -36s52.834 -11.5 81.501 -11.5c30 0 58.167 4.33301 84.5 13s49.333 21.667 69 39s35.334 39 47.001 65s17.5 56 17.5 90z" />
    <glyph glyph-name="four" unicode="4" 
d="M498 107v95h-76v166h-99v-166h-177l250 510h-110l-251 -510v-95h288v-107h99v107h76z" />
    <glyph glyph-name="five" unicode="5" 
d="M479 238c0 16.667 -0.666992 33.501 -2 50.501s-4.16602 33.5 -8.49902 49.5s-10.666 31.667 -18.999 47s-19.166 29.666 -32.499 42.999c-14.667 14.667 -32.667 26 -54 34s-46 12 -74 12c-26 0 -49.167 -3.66699 -69.5 -11s-36.5 -17.333 -48.5 -30v188h292v91h-384
v-389h93c5.33301 17.333 16.166 32.333 32.499 45s39.166 19 68.499 19c20.667 0 37.667 -3.83301 51 -11.5s24 -18.167 32 -31.5s13.5 -29 16.5 -47s4.5 -37.667 4.5 -59c0 -24 -1.83301 -47 -5.5 -69s-13.167 -40.667 -28.5 -56c-18.667 -18.667 -43.334 -28 -74.001 -28
c-32 0 -56.333 8.5 -73 25.5s-27 41.5 -31 73.5h-102c2 -25.333 6.66699 -49.5 14 -72.5s20.666 -44.167 39.999 -63.5c15.333 -15.333 36 -28.333 62 -39s56 -16 90 -16c34.667 0 64.334 5.33301 89.001 16s45 24 61 40c26 26 42.5 54.5 49.5 85.5s10.5 65.5 10.5 103.5z
" />
    <glyph glyph-name="six" unicode="6" 
d="M477 211c0 31.333 -4.83496 59.667 -14.502 85s-23 47 -40 65s-36.833 31.833 -59.5 41.5s-47 14.5 -73 14.5c-11.333 0 -22.333 -0.833008 -33 -2.5s-20.667 -4.5 -30 -8.5l153 306h-109l-162 -330c-15.333 -31.333 -28 -61 -38 -89s-15 -56.667 -15 -86
c0 -33.333 5.16699 -63 15.5 -89s24.833 -48.333 43.5 -67s41 -32.834 67 -42.501s54.333 -14.5 85 -14.5s58.834 5.16699 84.501 15.5s47.834 25 66.501 44s33.167 41.833 43.5 68.5s15.5 56.334 15.5 89.001zM374.998 209.001c0 -38 -10.167 -68.1689 -30.5 -90.502
s-46.5 -33.5 -78.5 -33.5s-58 11.167 -78 33.5s-30 52.5 -30 90.5c0 38.667 10 68.834 30 90.501s46 32.5 78 32.5c34 0 60.667 -11.667 80 -35s29 -52.666 29 -87.999z" />
    <glyph glyph-name="seven" unicode="7" 
d="M487 621v91h-424v-203h98v112h217l-239 -621h110z" />
    <glyph glyph-name="eight" unicode="8" 
d="M486 201c0 21.333 -2.83301 40.666 -8.5 57.999s-13 32.833 -22 46.5s-19.333 25.667 -31 36s-23.834 19.166 -36.501 26.499c23.333 14 43.5 33.5 60.5 58.5s25.5 56.5 25.5 94.5c0 30 -5.33301 57 -16 81s-25.5 44.667 -44.5 62s-41.167 30.666 -66.5 39.999
s-52.333 14 -81 14c-29.333 0 -56.5 -4.66699 -81.5 -14s-46.833 -22.666 -65.5 -39.999s-33.334 -38 -44.001 -62s-16 -51 -16 -81c0 -38 8.5 -69.5 25.5 -94.5s37.167 -44.5 60.5 -58.5c-12.667 -7.33301 -24.834 -16.166 -36.501 -26.499s-22 -22.333 -31 -36
s-16.333 -29.167 -22 -46.5s-8.5 -36.666 -8.5 -57.999c0 -32 5.66699 -60.833 17 -86.5s26.833 -47.5 46.5 -65.5s42.834 -31.667 69.501 -41s55.334 -14 86.001 -14s59.334 4.66699 86.001 14s50 23 70 41s35.667 39.833 47 65.5s17 54.5 17 86.5zM372 518
c0 -32 -9.83301 -58 -29.5 -78s-45.167 -30 -76.5 -30s-56.666 10 -75.999 30s-29 46 -29 78c0 31.333 9.66699 57.333 29 78s44.666 31 75.999 31s56.833 -10.333 76.5 -31s29.5 -46.667 29.5 -78zM383 203c0 -16.667 -3 -32.167 -9 -46.5s-14.333 -26.833 -25 -37.5
s-23 -19 -37 -25s-29.333 -9 -46 -9s-32.167 3 -46.5 9s-26.666 14.333 -36.999 25s-18.5 23.167 -24.5 37.5s-9 29.833 -9 46.5s3 32.167 9 46.5s14.167 26.833 24.5 37.5s22.666 19.167 36.999 25.5s29.833 9.5 46.5 9.5s32 -3.16699 46 -9.5s26.333 -14.833 37 -25.5
s19 -23.167 25 -37.5s9 -29.833 9 -46.5z" />
    <glyph glyph-name="nine" unicode="9" 
d="M477 505c0 32.667 -5.16504 62.166 -15.498 88.499s-24.833 48.833 -43.5 67.5s-41 32.834 -67 42.501s-54.333 14.5 -85 14.5s-58.834 -5.16699 -84.501 -15.5s-47.834 -25 -66.501 -44s-33.167 -41.833 -43.5 -68.5s-15.5 -56.334 -15.5 -89.001
c0 -31.333 4.83301 -59.666 14.5 -84.999s23 -47 40 -65s36.667 -31.833 59 -41.5s46.5 -14.5 72.5 -14.5c11.333 0 22.5 0.833008 33.5 2.5s21.167 4.5 30.5 8.5l-153 -306h109l162 330c15.333 31.333 28 61 38 89s15 56.667 15 86zM375.002 502.999
c0 -38.667 -10.167 -68.832 -30.5 -90.499s-46.5 -32.5 -78.5 -32.5c-34 0 -60.5 11.667 -79.5 35s-28.5 52.666 -28.5 87.999c0 38 10 68.167 30 90.5s46 33.5 78 33.5s58.167 -11.167 78.5 -33.5s30.5 -52.5 30.5 -90.5z" />
    <glyph glyph-name="colon" unicode=":" horiz-adv-x="303" 
d="M225 285v122h-121v-122h121zM225 0v122h-121v-122h121z" />
    <glyph glyph-name="semicolon" unicode=";" horiz-adv-x="303" 
d="M225 285v122h-121v-122h121zM222 -60v176h-116v-271z" />
    <glyph glyph-name="less" unicode="&#x3c;" horiz-adv-x="1027" 
d="M974 229v97h-744l345 343h-131l-392 -392l392 -391h131l-345 343h744z" />
    <glyph glyph-name="equal" unicode="=" 
d="M482 327v95h-431v-95h431zM482 133v95h-431v-95h431z" />
    <glyph glyph-name="greater" unicode="&#x3e;" horiz-adv-x="1027" 
d="M975 277l-392 392h-131l345 -343h-745v-97h745l-345 -343h131z" />
    <glyph glyph-name="question" unicode="?" horiz-adv-x="511" 
d="M470 527c0 29.333 -5.33203 55.834 -15.999 79.501s-25 43.667 -43 60s-39.167 29 -63.5 38s-50.166 13.5 -77.499 13.5c-28 0 -54.167 -4.66699 -78.5 -14s-45.5 -22.5 -63.5 -39.5s-32 -37.333 -42 -61s-15 -49.5 -15 -77.5h102c0 27.333 8.33301 51 25 71
s40.667 30 72 30c29.333 0 53 -9.66699 71 -29s27 -43 27 -71c0 -14 -2.83301 -27.167 -8.5 -39.5s-13.167 -24.5 -22.5 -36.5l-78 -105c-12 -16 -20.667 -31.333 -26 -46s-8 -32.334 -8 -53.001v-35h102v30c0 8 1.66699 17.167 5 27.5s7.66602 19.166 12.999 26.499l77 108
c13.333 18.667 24.666 37.834 33.999 57.501s14 41.5 14 65.5zM332.001 0.000976562v109h-113v-109h113z" />
    <glyph glyph-name="at" unicode="@" horiz-adv-x="736" 
d="M672 -2l0.00195312 483.001c0 38 -4.66699 71.333 -14 100s-24.666 53.667 -45.999 75s-46.166 36.5 -74.499 45.5s-60.5 13.5 -96.5 13.5h-146c-36.667 0 -69.167 -4.5 -97.5 -13.5s-53.166 -24.167 -74.499 -45.5s-36.5 -46.333 -45.5 -75s-13.5 -62 -13.5 -100v-318
c0 -22 1.33301 -41.333 4 -58s7.16699 -31.667 13.5 -45s14.5 -25.666 24.5 -36.999s22.333 -23 37 -35l70 70c-10 8 -18.167 15.5 -24.5 22.5s-11.333 14.667 -15 23s-6.33398 17.666 -8.00098 27.999s-2.5 22.5 -2.5 36.5v312c0 24 2.33301 44.167 7 60.5
s14.667 32.166 30 47.499c14 14 29.667 23.667 47 29s36.666 8 57.999 8h126c21.333 0 41 -2.83301 59 -8.5s33.667 -15.167 47 -28.5c14 -14.667 23.667 -30.5 29 -47.5s8 -37.167 8 -60.5v-61c-16 18.667 -34 32.667 -54 42s-44 14 -72 14s-53.333 -5.16699 -76 -15.5
s-41.334 -24.166 -56.001 -41.499c-18 -21.333 -29.667 -46.333 -35 -75s-8 -65 -8 -109c0 -22.667 0.5 -43 1.5 -61s3.16699 -34.333 6.5 -49s8 -28.167 14 -40.5s13.667 -23.833 23 -34.5c15.333 -17.333 34.166 -31 56.499 -41s47.166 -15 74.499 -15
c29.333 0 53.833 4.66699 73.5 14s37.5 23.666 53.5 42.999v-50zM574.002 234.001c0 -21.333 -1.33301 -41.333 -4 -60s-7.83398 -35 -15.501 -49s-18.167 -25 -31.5 -33s-30.333 -12 -51 -12c-21.333 0 -38.5 4 -51.5 12s-23.167 19 -30.5 33s-12.333 30.333 -15 49
s-4 38.667 -4 60s1.33301 41.5 4 60.5s7.66699 35.5 15 49.5s17.5 25 30.5 33s30.167 12 51.5 12c20.667 0 37.667 -4 51 -12s23.833 -19 31.5 -33s12.834 -30.5 15.501 -49.5s4 -39.167 4 -60.5z" />
    <glyph glyph-name="A" unicode="A" horiz-adv-x="625" 
d="M617 0l-261 712h-87l-261 -712h115l49 143h281l49 -143h115zM423 235h-219l111 316z" />
    <glyph glyph-name="B" unicode="B" horiz-adv-x="663" 
d="M596 201c0 22.667 -2.99902 43 -8.99902 61s-14 33.667 -24 47s-21.333 24.833 -34 34.5s-26 17.167 -40 22.5c12 4.66699 23.667 11.5 35 20.5s21.5 20 30.5 33s16.333 27.667 22 44s8.5 34.166 8.5 53.499c0 60.667 -19.167 108.334 -57.5 143.001
s-90.833 52 -157.5 52h-277v-712h288c31.333 -0 60.166 4.33301 86.499 13s49 21.5 68 38.5s33.833 38 44.5 63s16 53.833 16 86.5zM477.001 513c0 -33.333 -10.667 -58.668 -32 -76.001s-49.333 -26 -84 -26h-160v204h160c34.667 0 62.667 -8.66699 84 -26
s32 -42.666 32 -75.999zM488.001 205.998c0 -32 -10 -58.167 -30 -78.5s-49 -30.5 -87 -30.5h-170v217h170c38 0 67 -10 87 -30s30 -46 30 -78z" />
    <glyph glyph-name="C" unicode="C" horiz-adv-x="628" 
d="M577 213l-109 0.00195312c-8.66699 -36 -25 -65.333 -49 -88s-56 -34 -96 -34c-21.333 0 -41 3.83301 -59 11.5s-33.333 18.167 -46 31.5c-8.66699 9.33301 -15.834 19.5 -21.501 30.5s-10 24.667 -13 41s-5.16699 36.5 -6.5 60.5s-2 54 -2 90s0.666992 66 2 90
s3.5 44.167 6.5 60.5s7.33301 30 13 41s12.834 21.167 21.501 30.5c12.667 13.333 28 23.833 46 31.5s37.667 11.5 59 11.5c40 0 71.833 -11.333 95.5 -34s39.834 -52 48.501 -88h110c-12.667 71.333 -41.667 125.666 -87 162.999s-101 56 -167 56
c-37.333 0 -71.666 -6.5 -102.999 -19.5s-59.333 -31.833 -84 -56.5c-17.333 -17.333 -30.666 -35.666 -39.999 -54.999s-16.166 -40.333 -20.499 -63s-6.83301 -47.834 -7.5 -75.501s-1 -58.5 -1 -92.5s0.333008 -64.833 1 -92.5s3.16699 -52.834 7.5 -75.501
s11.166 -43.667 20.499 -63s22.666 -37.666 39.999 -54.999c24.667 -24.667 52.667 -43.5 84 -56.5s65.666 -19.5 102.999 -19.5c32 0 62.167 4.66699 90.5 14s53.666 23.333 75.999 42s41 41.667 56 69s25.5 58.666 31.5 93.999z" />
    <glyph glyph-name="D" unicode="D" horiz-adv-x="666" 
d="M599 361c0 26 -0.166992 51.6719 -0.5 77.0049s-2.5 50.166 -6.5 74.499s-11 47.666 -21 69.999s-24.667 43.166 -44 62.499c-22.667 22.667 -49.667 39.5 -81 50.5s-65.666 16.5 -102.999 16.5h-250v-712h250c37.333 0 71.666 5.5 102.999 16.5s58.333 27.833 81 50.5
c19.333 19.333 34 40.666 44 63.999s17 47.666 21 72.999s6.16699 51.333 6.5 78s0.5 53 0.5 79zM491 361.005c0 -49.333 -1.66699 -92.499 -5 -129.499s-14.333 -65.833 -33 -86.5c-29.333 -32 -69.666 -48 -120.999 -48h-131v518h131c51.333 0 91.666 -16 120.999 -48
c18.667 -20.667 29.667 -47.834 33 -81.501s5 -75.167 5 -124.5z" />
    <glyph glyph-name="E" unicode="E" horiz-adv-x="603" 
d="M548 0v97h-347v214h296v96h-296v208h347v97h-455v-712h455z" />
    <glyph glyph-name="F" unicode="F" horiz-adv-x="585" 
d="M548 615v97h-455v-712h108v301h296v97h-296v217h347z" />
    <glyph glyph-name="G" unicode="G" horiz-adv-x="649" 
d="M583 276l0.000976562 108.999h-260v-92h152v-40c0 -23.333 -2.66699 -44 -8 -62s-14.666 -34.667 -27.999 -50c-14 -16 -31 -28.333 -51 -37s-41.667 -13 -65 -13c-21.333 0 -41 3.83301 -59 11.5s-33.333 18.167 -46 31.5c-8.66699 9.33301 -15.834 19.5 -21.501 30.5
s-10 24.667 -13 41s-5.16699 36.5 -6.5 60.5s-2 54 -2 90s0.666992 65.833 2 89.5s3.5 43.667 6.5 60s7.33301 30 13 41s12.834 21.167 21.501 30.5c12.667 13.333 28 24 46 32s37.667 12 59 12c40 0 72.667 -10.833 98 -32.5s42.666 -52.167 51.999 -91.5h109
c-5.33301 30.667 -14.666 59.334 -27.999 86.001s-30.833 50 -52.5 70s-47.334 35.833 -77.001 47.5s-63.5 17.5 -101.5 17.5s-72.5 -6.5 -103.5 -19.5s-58.833 -31.833 -83.5 -56.5c-17.333 -17.333 -30.666 -35.666 -39.999 -54.999s-16.166 -40.333 -20.499 -63
s-6.83301 -47.834 -7.5 -75.501s-1 -58.5 -1 -92.5s0.333008 -64.833 1 -92.5s3.16699 -52.834 7.5 -75.501s11.166 -43.667 20.499 -63s22.666 -37.666 39.999 -54.999c24.667 -24.667 52.667 -43.5 84 -56.5s65.666 -19.5 102.999 -19.5c38 0 73.333 6.33301 106 19
s62.667 33.334 90 62.001c23.333 25.333 39.833 53.666 49.5 84.999s14.5 70 14.5 116z" />
    <glyph glyph-name="H" unicode="H" horiz-adv-x="691" 
d="M598 0v712h-108v-304h-289v304h-108v-712h108v311h289v-311h108z" />
    <glyph glyph-name="I" unicode="I" horiz-adv-x="294" 
d="M201 0v712h-108v-712h108z" />
    <glyph glyph-name="J" unicode="J" horiz-adv-x="506" 
d="M423 225l-0.00195312 487.002h-108v-479c0 -46.667 -11.5 -82 -34.5 -106s-54.5 -36 -94.5 -36c-26 0 -46.167 4 -60.5 12s-27.833 18.333 -40.5 31l-72 -71c24.667 -24.667 50.5 -42.334 77.5 -53.001s58.833 -16 95.5 -16c32.667 0 63.334 5.16699 92.001 15.5
s53.834 25.166 75.501 44.499s38.667 43.333 51 72s18.5 61.667 18.5 99z" />
    <glyph glyph-name="K" unicode="K" horiz-adv-x="658" 
d="M648 0l-255 433l231 279h-132l-291 -358v358h-108v-712h108v207l120 144l200 -351h127z" />
    <glyph glyph-name="L" unicode="L" horiz-adv-x="574" 
d="M544 0v97h-343v615h-108v-712h451z" />
    <glyph glyph-name="M" unicode="M" horiz-adv-x="813" 
d="M721 0v712h-108l-204 -443l-208 443h-108v-712h108v476l168 -347h80l164 347v-476h108z" />
    <glyph glyph-name="N" unicode="N" horiz-adv-x="722" 
d="M629 0v712h-108v-500l-329 500h-99v-712h108v501l329 -501h99z" />
    <glyph glyph-name="O" unicode="O" horiz-adv-x="646" 
d="M579 356c0 34 -0.333008 64.833 -1 92.5s-3 52.834 -7 75.501s-10.667 43.667 -20 63s-22.666 37.666 -39.999 54.999c-24.667 24.667 -52.667 43.5 -84 56.5s-66 19.5 -104 19.5s-72.5 -6.5 -103.5 -19.5s-58.833 -31.833 -83.5 -56.5
c-17.333 -17.333 -30.666 -35.666 -39.999 -54.999s-16.166 -40.333 -20.499 -63s-6.83301 -47.834 -7.5 -75.501s-1 -58.5 -1 -92.5s0.333008 -64.833 1 -92.5s3.16699 -52.834 7.5 -75.501s11.166 -43.667 20.499 -63s22.666 -37.666 39.999 -54.999
c24.667 -24.667 52.5 -43.5 83.5 -56.5s65.5 -19.5 103.5 -19.5s72.667 6.5 104 19.5s59.333 31.833 84 56.5c17.333 17.333 30.666 35.666 39.999 54.999s16 40.333 20 63s6.33301 47.834 7 75.501s1 58.5 1 92.5zM471 356c0 -36 -0.5 -65.833 -1.5 -89.5
s-3 -43.667 -6 -60s-7.33301 -30 -13 -41s-12.834 -21.167 -21.501 -30.5c-12.667 -13.333 -28.167 -24 -46.5 -32s-38.166 -12 -59.499 -12s-41.166 4 -59.499 12s-33.833 18.667 -46.5 32c-8.66699 9.33301 -15.834 19.5 -21.501 30.5s-10 24.667 -13 41s-5 36.333 -6 60
s-1.5 53.5 -1.5 89.5s0.5 65.833 1.5 89.5s3 43.667 6 60s7.33301 30 13 41s12.834 21.167 21.501 30.5c12.667 13.333 28.167 24 46.5 32s38.166 12 59.499 12s41.166 -4 59.499 -12s33.833 -18.667 46.5 -32c8.66699 -9.33301 15.834 -19.5 21.501 -30.5
s10 -24.667 13 -41s5 -36.333 6 -60s1.5 -53.5 1.5 -89.5z" />
    <glyph glyph-name="P" unicode="P" horiz-adv-x="629" 
d="M591 496c0 30.667 -5.33301 59.334 -16 86.001s-26 49.5 -46 68.5s-44 34 -72 45s-59.333 16.5 -94 16.5h-270v-712h108v280h162c34.667 0 66 5.5 94 16.5s52 26 72 45s35.333 41.667 46 68s16 55.166 16 86.499zM483 496c0 -38 -11.5 -67.167 -34.5 -87.5
s-53.5 -30.5 -91.5 -30.5h-156v237h156c38 0 68.5 -10.333 91.5 -31s34.5 -50 34.5 -88z" />
    <glyph glyph-name="Q" unicode="Q" horiz-adv-x="646" 
d="M603 28l-70.001 68.998c12 16 21 32.833 27 50.5s10.5 36.834 13.5 57.501s4.66699 43.5 5 68.5s0.5 52.5 0.5 82.5c0 34 -0.333008 64.833 -1 92.5s-3 52.834 -7 75.501s-10.667 43.667 -20 63s-22.666 37.666 -39.999 54.999c-24.667 24.667 -52.667 43.5 -84 56.5
s-66 19.5 -104 19.5s-72.5 -6.5 -103.5 -19.5s-58.833 -31.833 -83.5 -56.5c-17.333 -17.333 -30.666 -35.666 -39.999 -54.999s-16.166 -40.333 -20.499 -63s-6.83301 -47.834 -7.5 -75.501s-1 -58.5 -1 -92.5s0.333008 -64.833 1 -92.5s3.16699 -52.834 7.5 -75.501
s11.166 -43.667 20.499 -63s22.666 -37.666 39.999 -54.999c24.667 -24.667 52.5 -43.5 83.5 -56.5s65.5 -19.5 103.5 -19.5c28 0 54.667 3.83301 80 11.5s48.333 18.834 69 33.501l71 -71zM470.999 355.998c0 -46 -1.16895 -82.333 -3.50195 -109s-8.16602 -49 -17.499 -67
l-69 69l-60 -60l75 -75c-21.333 -15.333 -45.666 -23 -72.999 -23c-21.333 0 -41.166 4 -59.499 12s-33.833 18.667 -46.5 32c-8.66699 9.33301 -15.834 19.5 -21.501 30.5s-10 24.667 -13 41s-5 36.333 -6 60s-1.5 53.5 -1.5 89.5s0.5 65.833 1.5 89.5s3 43.667 6 60
s7.33301 30 13 41s12.834 21.167 21.501 30.5c12.667 13.333 28.167 24 46.5 32s38.166 12 59.499 12s41.166 -4 59.499 -12s33.833 -18.667 46.5 -32c8.66699 -9.33301 15.834 -19.5 21.501 -30.5s10 -24.667 13 -41s5 -36.333 6 -60s1.5 -53.5 1.5 -89.5z" />
    <glyph glyph-name="R" unicode="R" horiz-adv-x="655" 
d="M612 0l-164.001 315.001c40 11.333 73.667 32.833 101 64.5s41 73.167 41 124.5c0 30 -5.16699 57.833 -15.5 83.5s-25.166 47.667 -44.499 66s-42.5 32.666 -69.5 42.999s-57.5 15.5 -91.5 15.5h-276v-712h108v300h135l150 -300h126zM481.999 503.001
c0 -35.333 -11.167 -62.667 -33.5 -82s-51.5 -29 -87.5 -29h-160v223h160c36 0 65.167 -9.83301 87.5 -29.5s33.5 -47.167 33.5 -82.5z" />
    <glyph glyph-name="S" unicode="S" horiz-adv-x="590" 
d="M538 203c0 30.667 -4.83301 58.3369 -14.5 83.0039s-24.167 45.667 -43.5 63c-15.333 13.333 -33 24.166 -53 32.499s-46.667 15.166 -80 20.499l-81 12c-34.667 5.33301 -61.334 16.333 -80.001 33c-9.33301 8.66699 -16.166 18.5 -20.499 29.5s-6.5 23.167 -6.5 36.5
c0 32 11.167 58.5 33.5 79.5s54.5 31.5 96.5 31.5c30 0 57.833 -3.83301 83.5 -11.5s49.5 -22.167 71.5 -43.5l69 68c-30.667 28.667 -63.334 49.334 -98.001 62.001s-75.667 19 -123 19c-37.333 0 -70.666 -5 -99.999 -15s-54.166 -24.333 -74.499 -43
s-36 -40.834 -47 -66.501s-16.5 -53.834 -16.5 -84.501c0 -58 17.333 -103.333 52 -136c32 -30 77 -49 135 -57l84 -12c21.333 -3.33301 37.333 -7 48 -11s20.667 -10.333 30 -19c18.667 -16.667 28 -41.334 28 -74.001c0 -34.667 -12.833 -61.5 -38.5 -80.5
s-61.834 -28.5 -108.501 -28.5c-36.667 0 -69.667 4.83301 -99 14.5s-57 27.5 -83 53.5l-72 -71c34 -34.667 71 -59 111 -73s87 -21 141 -21c37.333 0 71.666 4.66699 102.999 14s58.333 23 81 41s40.334 40 53.001 66s19 55.333 19 88z" />
    <glyph glyph-name="T" unicode="T" horiz-adv-x="560" 
d="M530 615v97h-500v-97h196v-615h108v615h196z" />
    <glyph glyph-name="U" unicode="U" horiz-adv-x="675" 
d="M593 240l0.000976562 472h-108v-467c0 -48 -13.5 -85.667 -40.5 -113s-62.833 -41 -107.5 -41s-80.334 13.667 -107.001 41s-40 65 -40 113v467h-108v-472c0 -36.667 6.5 -70.167 19.5 -100.5s30.833 -56.166 53.5 -77.499s49.667 -38 81 -50s65 -18 101 -18
s69.667 6 101 18s58.5 28.667 81.5 50s41 47.166 54 77.499s19.5 63.833 19.5 100.5z" />
    <glyph glyph-name="V" unicode="V" horiz-adv-x="564" 
d="M559 712h-114l-164 -518l-164 518h-112l234 -712h84z" />
    <glyph glyph-name="W" unicode="W" horiz-adv-x="871" 
d="M860 712h-114l-124 -509l-143 509h-87l-143 -509l-124 509h-114l186 -712h94l144 499l145 -499h94z" />
    <glyph glyph-name="X" unicode="X" horiz-adv-x="578" 
d="M568 0l-221 365l206 347h-124l-141 -255l-140 255h-124l206 -347l-220 -365h124l154 273l155 -273h125z" />
    <glyph glyph-name="Y" unicode="Y" horiz-adv-x="544" 
d="M539 712h-118l-149 -313l-149 313h-118l213 -419v-293h108v293z" />
    <glyph glyph-name="Z" unicode="Z" horiz-adv-x="552" 
d="M504 0v97h-331l331 527v88h-442v-97h315l-329 -522v-93h456z" />
    <glyph glyph-name="bracketleft" unicode="[" horiz-adv-x="347" 
d="M304 -74v91h-116v678h116v91h-218v-860h218z" />
    <glyph glyph-name="backslash" unicode="\" horiz-adv-x="380" 
d="M380 -74l-282 852h-98l282 -852h98z" />
    <glyph glyph-name="bracketright" unicode="]" horiz-adv-x="347" 
d="M261 -74v860h-218v-90h118v-680h-118v-90h218z" />
    <glyph glyph-name="asciicircum" unicode="^" horiz-adv-x="571" 
d="M503 401l-171 318h-93l-172 -318h106l112 207l112 -207h106z" />
    <glyph glyph-name="underscore" unicode="_" horiz-adv-x="571" 
d="M571 -172v70h-571v-70h571z" />
    <glyph glyph-name="grave" unicode="`" horiz-adv-x="500" 
d="M302 599l-75 162h-113l111 -162h77z" />
    <glyph glyph-name="a" unicode="a" horiz-adv-x="530" 
d="M454 0v339c0 116 -69.667 174 -209 174c-42 0 -76.833 -5.16699 -104.5 -15.5s-53.5 -29.5 -77.5 -57.5l67 -63c14 18 29 30.667 45 38s38 11 66 11c40 0 68.5 -7.83301 85.5 -23.5s25.5 -39.5 25.5 -71.5v-36h-134c-58.667 0 -102.5 -13.667 -131.5 -41
s-43.5 -62.333 -43.5 -105c0 -44.667 13.333 -81 40 -109c15.333 -15.333 33.833 -26.833 55.5 -34.5s48.5 -11.5 80.5 -11.5c31.333 0 57 4 77 12s39.333 21.333 58 40v-46h100zM352 183c0 -35.333 -7.33496 -60.332 -22.002 -74.999
c-13.333 -13.333 -27.666 -21.5 -42.999 -24.5s-32.666 -4.5 -51.999 -4.5c-32 0 -55.5 6.16699 -70.5 18.5s-22.5 30.166 -22.5 53.499s7.66699 41.333 23 54s38 19 68 19h119v-41z" />
    <glyph glyph-name="b" unicode="b" horiz-adv-x="553" 
d="M496 254c0 19.333 -0.501953 38.9961 -1.50195 58.9961s-3.5 39.333 -7.5 58s-9.83301 36.334 -17.5 53.001s-17.834 31.334 -30.501 44.001c-14 14 -31.667 25 -53 33s-44.666 12 -69.999 12c-27.333 0 -51.666 -4 -72.999 -12s-41.333 -23 -60 -45v256h-102v-712h100
v54c19.333 -23.333 39.5 -39.166 60.5 -47.499s45.5 -12.5 73.5 -12.5c25.333 0 48.833 4 70.5 12s39.5 19 53.5 33c12.667 12.667 22.834 27.334 30.501 44.001s13.5 34.5 17.5 53.5s6.5 38.5 7.5 58.5s1.5 39.667 1.5 59zM393.998 253.996
c0 -22.667 -1.16699 -44.167 -3.5 -64.5s-7.16602 -38.333 -14.499 -54s-18 -28 -32 -37s-32.333 -13.5 -55 -13.5c-23.333 0 -41.833 4.5 -55.5 13.5s-24.334 21.333 -32.001 37s-12.667 33.667 -15 54s-3.5 41.833 -3.5 64.5s1.16699 44.167 3.5 64.5
s7.33301 38.166 15 53.499s18.334 27.5 32.001 36.5s32.167 13.5 55.5 13.5c22.667 0 41 -4.5 55 -13.5s24.667 -21.167 32 -36.5s12.166 -33.166 14.499 -53.499s3.5 -41.833 3.5 -64.5z" />
    <glyph glyph-name="c" unicode="c" horiz-adv-x="485" 
d="M448 66l-70 66.998c-16 -17.333 -31.167 -29.666 -45.5 -36.999s-31.5 -11 -51.5 -11c-40 0 -71.333 15 -94 45c-11.333 14 -19.166 30.667 -23.499 50s-6.5 44 -6.5 74s2.16699 54.5 6.5 73.5s12.166 35.5 23.499 49.5c22.667 30 54 45 94 45
c20 0 37.167 -3.66699 51.5 -11s29.5 -19.666 45.5 -36.999l70 68c-24 25.333 -49 43.5 -75 54.5s-56.667 16.5 -92 16.5c-28.667 0 -56.5 -4.66699 -83.5 -14s-51 -24.166 -72 -44.499s-38 -47 -51 -80s-19.5 -73.167 -19.5 -120.5s6.5 -87.5 19.5 -120.5
s30 -59.833 51 -80.5s45 -35.667 72 -45s54.833 -14 83.5 -14c35.333 0 66 5.66699 92 17s51 29.666 75 54.999z" />
    <glyph glyph-name="d" unicode="d" horiz-adv-x="553" 
d="M472 0l-0.00195312 712.004h-102v-256c-18.667 22 -38.667 37 -60 45s-45.666 12 -72.999 12c-25.333 0 -48.666 -4 -69.999 -12s-39 -19 -53 -33c-12.667 -12.667 -22.834 -27.334 -30.501 -44.001s-13.5 -34.334 -17.5 -53.001s-6.5 -38 -7.5 -58
s-1.5 -39.667 -1.5 -59s0.5 -39 1.5 -59s3.5 -39.5 7.5 -58.5s9.83301 -36.833 17.5 -53.5s17.834 -31.334 30.501 -44.001c14 -14 31.833 -25 53.5 -33s45.167 -12 70.5 -12c28 0 52.5 4.16699 73.5 12.5s41.167 24.166 60.5 47.499v-54h100zM369.998 254.004
c0 -22.667 -1.16699 -44.167 -3.5 -64.5s-7.16602 -38.333 -14.499 -54s-18 -28 -32 -37s-32.333 -13.5 -55 -13.5c-23.333 0 -41.833 4.5 -55.5 13.5s-24.334 21.333 -32.001 37s-12.667 33.667 -15 54s-3.5 41.833 -3.5 64.5s1.16699 44.167 3.5 64.5
s7.33301 38.166 15 53.499s18.334 27.5 32.001 36.5s32.167 13.5 55.5 13.5c22.667 0 41 -4.5 55 -13.5s24.667 -21.167 32 -36.5s12.166 -33.166 14.499 -53.499s3.5 -41.833 3.5 -64.5z" />
    <glyph glyph-name="e" unicode="e" horiz-adv-x="539" 
d="M485 224l0.000976562 44.998c0 36 -4.83301 69 -14.5 99s-23.667 55.667 -42 77s-40.833 38 -67.5 50s-57 18 -91 18c-65.333 0 -117.5 -22.5 -156.5 -67.5s-58.5 -108.833 -58.5 -191.5c0 -48 6 -88.667 18 -122s28.167 -60.166 48.5 -80.499s44.333 -35 72 -44
s57.5 -13.5 89.5 -13.5c22 0 41.833 1.66699 59.5 5s34 8.33301 49 15s29 14.834 42 24.501s26.167 21.167 39.5 34.5l-65 61c-18 -18 -35.833 -31.167 -53.5 -39.5s-40.834 -12.5 -69.501 -12.5c-42 0 -74 12.667 -96 38s-33 60 -33 104h329zM384.001 294.998h-228
c0.666992 15.333 1.66699 27.833 3 37.5s4.66602 20.167 9.99902 31.5c8 19.333 20.833 34.833 38.5 46.5s38.5 17.5 62.5 17.5s44.667 -5.83301 62 -17.5s30 -27.167 38 -46.5c5.33301 -11.333 8.83301 -21.833 10.5 -31.5s2.83398 -22.167 3.50098 -37.5z" />
    <glyph glyph-name="f" unicode="f" horiz-adv-x="328" 
d="M300 420l-0.000976562 78h-101v73c0 18.667 4.5 33.167 13.5 43.5s23.167 15.5 42.5 15.5h45v87h-64c-24 0 -44.667 -4 -62 -12s-31.666 -18.5 -42.999 -31.5s-19.833 -28 -25.5 -45s-8.5 -34.5 -8.5 -52.5v-78h-58v-78h58v-420h102v420h101z" />
    <glyph glyph-name="g" unicode="g" horiz-adv-x="549" 
d="M468 3l-0.000976562 504.003h-99v-54c-19.333 23.333 -39.5 39.166 -60.5 47.499s-45.167 12.5 -72.5 12.5c-52 0 -92.667 -14.667 -122 -44c-24.667 -24.667 -40.334 -54.334 -47.001 -89.001s-10 -73.667 -10 -117s3.33301 -82.333 10 -117
s22.334 -64.334 47.001 -89.001c14 -14 31.333 -25 52 -33s43.667 -12 69 -12c26 0 49.667 4.16699 71 12.5s41.333 23.5 60 45.5v-65c0 -17.333 -2.16699 -33.666 -6.5 -48.999s-11.333 -29 -21 -41s-22 -21.5 -37 -28.5s-33.167 -10.5 -54.5 -10.5
c-25.333 0 -46 3.66699 -62 11s-32 18.666 -48 33.999l-65 -65c26.667 -24.667 53.5 -42 80.5 -52s59.833 -15 98.5 -15c34 0 64.333 5.33301 91 16s49.334 25.5 68.001 44.5s33 41.5 43 67.5s15 54.667 15 86zM365.999 263.003c0 -20 -1 -39.5 -3 -58.5
s-6.66699 -36 -14 -51s-17.833 -27 -31.5 -36s-31.834 -13.5 -54.501 -13.5c-23.333 0 -41.833 4.5 -55.5 13.5s-24 21 -31 36s-11.667 32 -14 51s-3.5 38.5 -3.5 58.5s1.16699 39.5 3.5 58.5s7 36 14 51s17.333 27 31 36s32.167 13.5 55.5 13.5
c22.667 0 40.834 -4.5 54.501 -13.5s24.167 -21 31.5 -36s12 -32 14 -51s3 -38.5 3 -58.5z" />
    <glyph glyph-name="h" unicode="h" horiz-adv-x="566" 
d="M490 0l-0.00292969 327c0 27.333 -3.83301 52.5 -11.5 75.5s-19 42.667 -34 59s-33.5 29 -55.5 38s-47 13.5 -75 13.5c-25.333 0 -49.166 -4.66699 -71.499 -14s-42.166 -23.666 -59.499 -42.999v256h-102v-712h102v311c0 38 10 66 30 84s44.333 27 73 27
s52.834 -8.83301 72.501 -26.5s29.5 -45.834 29.5 -84.501v-311h102z" />
    <glyph glyph-name="i" unicode="i" horiz-adv-x="264" 
d="M186 607v108h-108v-108h108zM183 0v507h-102v-507h102z" />
    <glyph glyph-name="j" unicode="j" horiz-adv-x="264" 
d="M186 607v108h-108v-108h108zM183 -67l0.000976562 573.999h-102v-568c0 -19.333 -4 -34 -12 -44s-22.333 -15 -43 -15h-45v-87h63c24 0 44.833 3.83301 62.5 11.5s32.167 17.834 43.5 30.501s19.666 27.5 24.999 44.5s8 34.833 8 53.5z" />
    <glyph glyph-name="k" unicode="k" horiz-adv-x="548" 
d="M526 0l-198 308l176 199h-124l-197 -234v439h-102v-712h102v149l75 85l142 -234h126z" />
    <glyph glyph-name="l" unicode="l" horiz-adv-x="311" 
d="M280 0l0.000976562 87.001h-45c-20.667 0 -35 5 -43 15s-12 24.667 -12 44v566h-102v-572c0 -18.667 2.66699 -36.5 8 -53.5s13.666 -31.833 24.999 -44.5s25.833 -22.834 43.5 -30.501s38.5 -11.5 62.5 -11.5h63z" />
    <glyph glyph-name="m" unicode="m" horiz-adv-x="877" 
d="M801 0l-0.00585938 324c0 28.667 -4.16699 54.834 -12.5 78.501s-22.166 45.167 -41.499 64.5c-15.333 14.667 -34 26 -56 34s-46 12 -72 12c-65.333 0 -118.333 -24.667 -159 -74c-32 49.333 -80 74 -144 74c-25.333 0 -49.833 -4.83301 -73.5 -14.5
s-44.167 -23.834 -61.5 -42.501v51h-100v-507h102v309c0 38.667 10.333 67.167 31 85.5s45.334 27.5 74.001 27.5s52.834 -9 72.501 -27s29.5 -46.667 29.5 -86v-309h102v314c0 18 2.83301 33.833 8.5 47.5s13.334 25 23.001 34s20.834 15.667 33.501 20s26 6.5 40 6.5
c28.667 0 52.834 -9 72.501 -27s29.5 -46.667 29.5 -86v-309h102z" />
    <glyph glyph-name="n" unicode="n" horiz-adv-x="568" 
d="M492 0l-0.00292969 323.998c0 28.667 -3.66699 54.834 -11 78.501s-20.666 45.167 -39.999 64.5c-15.333 14.667 -33.5 26 -54.5 34s-44.5 12 -70.5 12c-25.333 0 -49.833 -4.66699 -73.5 -14s-44.167 -23.666 -61.5 -42.999v51h-100v-507h102v309
c0 38.667 10.333 67.167 31 85.5s45.334 27.5 74.001 27.5s52.834 -9 72.501 -27s29.5 -46.667 29.5 -86v-309h102z" />
    <glyph glyph-name="o" unicode="o" horiz-adv-x="537" 
d="M480 254c0 42.667 -4 80.167 -12 112.5s-24 61.166 -48 86.499c-16.667 17.333 -37.5 31.666 -62.5 42.999s-54.833 17 -89.5 17s-64.334 -5.66699 -89.001 -17s-45.334 -25.666 -62.001 -42.999c-24 -25.333 -40 -54.166 -48 -86.499s-12 -69.833 -12 -112.5
c0 -43.333 4 -81.166 12 -113.499s24 -61.166 48 -86.499c16.667 -17.333 37.334 -31.666 62.001 -42.999s54.334 -17 89.001 -17s64.5 5.66699 89.5 17s45.833 25.666 62.5 42.999c24 25.333 40 54.166 48 86.499s12 70.166 12 113.499zM378 254c0 -28 -2 -54.333 -6 -79
s-13.667 -44.667 -29 -60c-20 -20 -45 -30 -75 -30c-29.333 0 -54 10 -74 30c-15.333 15.333 -25 35.333 -29 60s-6 51 -6 79s2 54.333 6 79s13.667 44.667 29 60c19.333 19.333 44 29 74 29c30.667 0 55.667 -9.66699 75 -29c15.333 -15.333 25 -35.333 29 -60s6 -51 6 -79
z" />
    <glyph glyph-name="p" unicode="p" horiz-adv-x="553" 
d="M496 254c0 19.333 -0.498047 38.9961 -1.49805 58.9961s-3.5 39.333 -7.5 58s-9.83301 36.334 -17.5 53.001s-17.834 31.334 -30.501 44.001c-14 14 -31.833 25 -53.5 33s-45.167 12 -70.5 12c-28 0 -52.5 -4.16699 -73.5 -12.5s-41.167 -24.166 -60.5 -47.499v54h-100
v-712h102v257c18.667 -22 38.667 -37.167 60 -45.5s45.666 -12.5 72.999 -12.5c25.333 0 48.666 4 69.999 12s39 19 53 33c12.667 12.667 22.834 27.334 30.501 44.001s13.5 34.5 17.5 53.5s6.5 38.5 7.5 58.5s1.5 39.667 1.5 59zM394.002 253.996
c0 -22.667 -1.16699 -44.167 -3.5 -64.5s-7.16602 -38.333 -14.499 -54s-18 -28 -32 -37s-32.333 -13.5 -55 -13.5c-23.333 0 -41.833 4.5 -55.5 13.5s-24.334 21.333 -32.001 37s-12.667 33.667 -15 54s-3.5 41.833 -3.5 64.5s1.16699 44.167 3.5 64.5
s7.33301 38.166 15 53.499s18.334 27.5 32.001 36.5s32.167 13.5 55.5 13.5c22.667 0 41 -4.5 55 -13.5s24.667 -21.167 32 -36.5s12.166 -33.166 14.499 -53.499s3.5 -41.833 3.5 -64.5z" />
    <glyph glyph-name="q" unicode="q" horiz-adv-x="553" 
d="M472 -205l0.00195312 712.004h-100v-54c-19.333 23.333 -39.5 39.166 -60.5 47.499s-45.5 12.5 -73.5 12.5c-25.333 0 -48.833 -4 -70.5 -12s-39.5 -19 -53.5 -33c-12.667 -12.667 -22.834 -27.334 -30.501 -44.001s-13.5 -34.334 -17.5 -53.001s-6.5 -38 -7.5 -58
s-1.5 -39.667 -1.5 -59s0.5 -39 1.5 -59s3.5 -39.5 7.5 -58.5s9.83301 -36.833 17.5 -53.5s17.834 -31.334 30.501 -44.001c14 -14 31.667 -25 53 -33s44.666 -12 69.999 -12c27.333 0 51.666 4.16699 72.999 12.5s41.333 23.5 60 45.5v-257h102zM370.002 254.004
c0 -22.667 -1.16699 -44.167 -3.5 -64.5s-7.16602 -38.333 -14.499 -54s-18 -28 -32 -37s-32.333 -13.5 -55 -13.5c-23.333 0 -41.833 4.5 -55.5 13.5s-24.334 21.333 -32.001 37s-12.667 33.667 -15 54s-3.5 41.833 -3.5 64.5s1.16699 44.167 3.5 64.5
s7.33301 38.166 15 53.499s18.334 27.5 32.001 36.5s32.167 13.5 55.5 13.5c22.667 0 41 -4.5 55 -13.5s24.667 -21.167 32 -36.5s12.166 -33.166 14.499 -53.499s3.5 -41.833 3.5 -64.5z" />
    <glyph glyph-name="r" unicode="r" horiz-adv-x="439" 
d="M437 465c-17.333 17.333 -35.667 29.668 -55 37.001s-41.333 11 -66 11c-28.667 0 -55 -5.66699 -79 -17s-42.667 -26 -56 -44v55h-100v-507h102v308c0 35.333 9.83301 63.166 29.5 83.499s43.5 30.5 71.5 30.5c17.333 0 31.5 -2.83301 42.5 -8.5
s22.167 -14.167 33.5 -25.5z" />
    <glyph glyph-name="s" unicode="s" horiz-adv-x="499" 
d="M456 155c0 45.333 -13.167 79.498 -39.5 102.498s-63.5 36.5 -111.5 40.5l-80 7c-27.333 2.66699 -45.833 9.16699 -55.5 19.5s-14.5 23.166 -14.5 38.499c0 19.333 7.66699 35 23 47s38.333 18 69 18c24 0 46.833 -2.83301 68.5 -8.5s40.5 -15.167 56.5 -28.5l64 65
c-23.333 20.667 -51 35.334 -83 44.001s-67 13 -105 13c-26.667 0 -51.5 -3.5 -74.5 -10.5s-43.167 -17 -60.5 -30s-31 -29.167 -41 -48.5s-15 -41.333 -15 -66c0 -44.667 13 -78.167 39 -100.5s63 -35.5 111 -39.5l81 -7c24.667 -2 42.167 -8.16699 52.5 -18.5
s15.5 -24.166 15.5 -41.499c0 -24 -10.667 -41.667 -32 -53s-47.666 -17 -78.999 -17c-25.333 0 -50.833 3.5 -76.5 10.5s-48.834 21.167 -69.501 42.5l-67 -67c30 -29.333 62.667 -48.833 98 -58.5s73.666 -14.5 114.999 -14.5c30 0 58 3.33301 84 10
s48.333 16.834 67 30.501s33.334 30.5 44.001 50.5s16 43.333 16 70z" />
    <glyph glyph-name="t" unicode="t" horiz-adv-x="342" 
d="M293 0l0.000976562 87h-42c-19.333 0 -33.5 5.16699 -42.5 15.5s-13.5 24.833 -13.5 43.5v274h98v78h-98v154h-102v-154h-58v-78h58v-279c0 -18 2.83301 -35.5 8.5 -52.5s14.167 -32 25.5 -45s25.666 -23.5 42.999 -31.5s38 -12 62 -12h61z" />
    <glyph glyph-name="u" unicode="u" horiz-adv-x="568" 
d="M487 0l0.00195312 506.999h-102v-309c0 -19.333 -2.83301 -36.166 -8.5 -50.499s-13.167 -26.166 -22.5 -35.499s-20.5 -16.166 -33.5 -20.499s-26.5 -6.5 -40.5 -6.5c-28.667 0 -52.834 9 -72.501 27s-29.5 46.667 -29.5 86v309h-102v-324
c0 -28.667 3.66699 -54.834 11 -78.501s20.666 -45.167 39.999 -64.5c15.333 -14.667 33.5 -26 54.5 -34s44.5 -12 70.5 -12c25.333 0 49.833 4.66699 73.5 14s44.167 23.666 61.5 42.999v-51h100z" />
    <glyph glyph-name="v" unicode="v" horiz-adv-x="471" 
d="M463 507h-108l-119 -357l-120 357h-108l186 -507h83z" />
    <glyph glyph-name="w" unicode="w" horiz-adv-x="743" 
d="M735 507h-109l-98 -357l-117 357h-79l-118 -357l-98 357h-108l157 -507h88l118 354l119 -354h87z" />
    <glyph glyph-name="x" unicode="x" horiz-adv-x="503" 
d="M481 0l-173 259l166 248h-123l-99 -165l-100 165h-123l167 -248l-174 -259h123l107 173l106 -173h123z" />
    <glyph glyph-name="y" unicode="y" horiz-adv-x="468" 
d="M464 507l-108.999 0.000976562l-118 -357l-121 357h-108l177 -483l-28 -79c-7.33301 -20.667 -16 -34.834 -26 -42.501s-25.667 -11.5 -47 -11.5h-26v-92h41c19.333 0 38 2.66699 56 8s34 15 48 29c15.333 15.333 27.666 36.333 36.999 63z" />
    <glyph glyph-name="z" unicode="z" horiz-adv-x="469" 
d="M421 0v91h-254l254 335v81h-364v-91h238l-252 -335v-81h378z" />
    <glyph glyph-name="braceleft" unicode="{" horiz-adv-x="407" 
d="M362 -74v91h-39c-16 0 -28.333 1 -37 3s-15.667 5.66699 -21 11s-9.16602 13 -11.499 23s-3.5 23.667 -3.5 41v161c0 16 -2 29.667 -6 41s-9 20.666 -15 27.999s-13 13.5 -21 18.5s-16 9.16699 -24 12.5c8 3.33301 16 7.5 24 12.5s15 11.167 21 18.5s11 16.666 15 27.999
s6 25 6 41v161c0 17.333 1.16699 31 3.5 41s6.16602 17.667 11.499 23s12.333 9 21 11s21 3 37 3h39v91h-71c-25.333 0 -46.666 -2.83301 -63.999 -8.5s-31.666 -14.167 -42.999 -25.5c-13.333 -13.333 -22.666 -28.166 -27.999 -44.499s-8 -36.5 -8 -60.5v-167
c0 -28 -6 -48 -18 -60c-5.33301 -5.33301 -11.833 -9.83301 -19.5 -13.5s-17.167 -5.5 -28.5 -5.5h-37v-90h37c11.333 0 20.833 -1.83301 28.5 -5.5s14.167 -8.16699 19.5 -13.5c12 -12 18 -32 18 -60v-167c0 -24 2.66699 -44.167 8 -60.5s14.666 -31.166 27.999 -44.499
c11.333 -11.333 25.666 -19.833 42.999 -25.5s38.666 -8.5 63.999 -8.5h71z" />
    <glyph glyph-name="bar" unicode="|" horiz-adv-x="338" 
d="M220 -74v860h-102v-860h102z" />
    <glyph glyph-name="braceright" unicode="}" horiz-adv-x="407" 
d="M362 311v90h-36c-11.333 0 -21 1.83301 -29 5.5s-14.667 8.16699 -20 13.5c-12 12 -18 32 -18 60v167c0 24 -2.66699 44.167 -8 60.5s-14.666 31.166 -27.999 44.499c-11.333 11.333 -25.666 19.833 -42.999 25.5s-38.666 8.5 -63.999 8.5h-71v-91h39
c16 0 28.333 -1 37 -3s15.667 -5.66699 21 -11s9.16602 -13 11.499 -23s3.5 -23.667 3.5 -41v-161c0 -16 2 -29.667 6 -41s9.16699 -20.666 15.5 -27.999s13.5 -13.5 21.5 -18.5s16 -9.16699 24 -12.5c-8 -3.33301 -16 -7.5 -24 -12.5s-15.167 -11.167 -21.5 -18.5
s-11.5 -16.666 -15.5 -27.999s-6 -25 -6 -41v-161c0 -17.333 -1.16699 -31 -3.5 -41s-6.16602 -17.667 -11.499 -23s-12.333 -9 -21 -11s-21 -3 -37 -3h-39v-91h71c25.333 0 46.666 2.83301 63.999 8.5s31.666 14.167 42.999 25.5
c13.333 13.333 22.666 28.166 27.999 44.499s8 36.5 8 60.5v167c0 28 6 48 18 60c5.33301 5.33301 12 9.83301 20 13.5s17.667 5.5 29 5.5h36z" />
    <glyph glyph-name="asciitilde" unicode="~" horiz-adv-x="574" 
d="M531 280l-65.002 64c-9.33301 -9.33301 -17.833 -17 -25.5 -23s-14.667 -10.5 -21 -13.5s-12.666 -5 -18.999 -6s-12.833 -1.5 -19.5 -1.5c-14 0 -27.333 2.16699 -40 6.5s-26 10.166 -40 17.499c-20.667 10 -39.5 18 -56.5 24s-35.167 9 -54.5 9
c-13.333 0 -25.666 -1.33301 -36.999 -4s-22.666 -7 -33.999 -13s-23.166 -14 -35.499 -24s-25.833 -22.333 -40.5 -37l64 -64c18.667 18.667 34 30.667 46 36s25 8 39 8s27.167 -2.16699 39.5 -6.5s25.5 -10.166 39.5 -17.499c20.667 -10 39.667 -18 57 -24
s35.666 -9 54.999 -9c13.333 0 25.666 1.33301 36.999 4s22.833 7 34.5 13s23.667 14 36 24s25.833 22.333 40.5 37z" />
    <glyph glyph-name="nonbreakingspace" unicode="&#xa0;" horiz-adv-x="240" 
 />
    <glyph glyph-name="exclamdown" unicode="&#xa1;" horiz-adv-x="332" 
d="M205 398v109h-112v-109h112zM211 -205l-22 500h-80l-22 -500h124z" />
    <glyph glyph-name="cent" unicode="&#xa2;" horiz-adv-x="498" 
d="M459 184l-68 65.9961c-13.333 -14.667 -26.166 -25.667 -38.499 -33s-26.833 -12.333 -43.5 -15v328c16.667 -2.66699 31.167 -7.66699 43.5 -15s25.166 -18.333 38.499 -33l68 66c-21.333 22.667 -43 39.834 -65 51.501s-47.333 19.167 -76 22.5v90h-80v-91
c-26.667 -4.66699 -51.167 -13.5 -73.5 -26.5s-41.666 -30.333 -57.999 -52s-29 -47.167 -38 -76.5s-13.5 -62.666 -13.5 -99.999s4.5 -70.666 13.5 -99.999s21.667 -54.833 38 -76.5s35.666 -39 57.999 -52s46.833 -21.833 73.5 -26.5v-111h80v110
c28.667 3.33301 54 10.833 76 22.5s43.667 28.834 65 51.501zM247 203.996c-23.333 4.66699 -43 17.666 -59 38.999c-10.667 14.667 -18.5 31.5 -23.5 50.5s-7.5 43.167 -7.5 72.5c0 30 2.66699 54.333 8 73s13.333 35.334 24 50.001c16 21.333 35.333 34.333 58 39v-324z
" />
    <glyph glyph-name="sterling" unicode="&#xa3;" horiz-adv-x="564" 
d="M516 0v96.998h-302v216h129v78h-129v88c0 46.667 11.5 82 34.5 106s54.5 36 94.5 36c26 0 46.167 -4 60.5 -12s27.833 -18.333 40.5 -31l72 71c-24.667 24.667 -50.5 42.334 -77.5 53.001s-58.833 16 -95.5 16c-32.667 0 -63.5 -5.16699 -92.5 -15.5
s-54.167 -25.166 -75.5 -44.499s-38.333 -43.5 -51 -72.5s-19 -61.833 -19 -98.5v-96h-62v-78h62v-313h411z" />
    <glyph glyph-name="currency" unicode="&#xa4;" horiz-adv-x="665" 
d="M597 81l-74 74c12 17.333 21.333 36.5 28 57.5s10 43.167 10 66.5s-3.33301 45.5 -10 66.5s-16 40.167 -28 57.5l74 73l-67 67l-74 -73c-36 24.667 -77.333 37 -124 37s-88 -12.333 -124 -37l-73 73l-67 -67l73 -73c-12 -17.333 -21.333 -36.5 -28 -57.5
s-10 -43.167 -10 -66.5s3.33301 -45.5 10 -66.5s16 -40.167 28 -57.5l-73 -74l67 -67l73 74c17.333 -12 36.5 -21.333 57.5 -28s43.167 -10 66.5 -10s45.5 3.33301 66.5 10s40.167 16 57.5 28l74 -74zM468 279c0 -18.667 -3.5 -36.334 -10.5 -53.001
s-16.667 -31.167 -29 -43.5s-26.833 -22 -43.5 -29s-34.334 -10.5 -53.001 -10.5s-36.334 3.5 -53.001 10.5s-31.167 16.667 -43.5 29s-22 26.833 -29 43.5s-10.5 34.334 -10.5 53.001s3.5 36.167 10.5 52.5s16.667 30.666 29 42.999s26.833 22 43.5 29
s34.334 10.5 53.001 10.5s36.334 -3.5 53.001 -10.5s31.167 -16.667 43.5 -29s22 -26.666 29 -42.999s10.5 -33.833 10.5 -52.5z" />
    <glyph glyph-name="yen" unicode="&#xa5;" horiz-adv-x="544" 
d="M538 712h-117l-148 -314l-150 314h-118l147 -290h-87v-78h127l26 -51v-52h-153v-78h153v-163h108v163h153v78h-153v52l26 51h127v78h-87z" />
    <glyph glyph-name="brokenbar" unicode="&#xa6;" horiz-adv-x="344" 
d="M220 436v350h-102v-350h102zM220 -74v350h-102v-350h102z" />
    <glyph glyph-name="section" unicode="&#xa7;" horiz-adv-x="543" 
d="M472 264c0 49.333 -12.166 89.167 -36.499 119.5s-59.5 52.5 -105.5 66.5l-70 21c-23.333 7.33301 -41.666 17.5 -54.999 30.5s-20 29.833 -20 50.5c0 24.667 7.66699 43.667 23 57s37 20 65 20c25.333 0 46.166 -5.83301 62.499 -17.5s25.5 -31.167 27.5 -58.5h98
c-0.666992 24 -5.33398 46.167 -14.001 66.5s-21 37.666 -37 51.999s-35.5 25.666 -58.5 33.999s-49.167 12.5 -78.5 12.5s-55.5 -4.5 -78.5 -13.5s-42.5 -21.167 -58.5 -36.5s-28.167 -33.166 -36.5 -53.499s-12.5 -42.166 -12.5 -65.499
c0 -36.667 7.83301 -65.167 23.5 -85.5s35.834 -36.5 60.501 -48.5c-11.333 -6 -22.833 -13.833 -34.5 -23.5s-22.167 -21 -31.5 -34s-16.833 -27.833 -22.5 -44.5s-8.5 -34.667 -8.5 -54c0 -50 12 -90 36 -120s59 -52 105 -66l70 -21c28 -8.66699 48 -21 60 -37
s18 -33 18 -51c0 -26 -8 -46.5 -24 -61.5s-38.333 -22.5 -67 -22.5c-28 0 -50.167 7 -66.5 21s-25.5 33.333 -27.5 58h-100c0.666992 -29.333 6.66699 -54.666 18 -75.999s26 -39 44 -53s38.333 -24.333 61 -31s46.334 -10 71.001 -10c25.333 0 49.5 4 72.5 12
s43.333 19.5 61 34.5s31.667 33.5 42 55.5s15.5 47.333 15.5 76c0 38 -8.33301 68.167 -25 90.5s-37.667 39.166 -63 50.499c11.333 6 22.666 13.833 33.999 23.5s21.666 21 30.999 34s17 27.833 23 44.5s9 34.667 9 54zM372.001 261.001
c0 -20 -2.83398 -35.9961 -8.50098 -47.9961s-12.5 -22.333 -20.5 -31c-17.333 -18.667 -40.666 -28 -69.999 -28c-30 0 -53.667 9.33301 -71 28c-8 8.66699 -14.667 19.167 -20 31.5s-8 28.166 -8 47.499s2.33301 35.166 7 47.499s11.667 23.166 21 32.499
c17.333 18.667 41 28 71 28c15.333 0 28.5 -2.5 39.5 -7.5s21.167 -11.833 30.5 -20.5c19.333 -18.667 29 -45.334 29 -80.001z" />
    <glyph glyph-name="dieresis" unicode="&#xa8;" horiz-adv-x="500" 
d="M404 604v108h-92v-108h92zM188 604v108h-92v-108h92z" />
    <glyph glyph-name="copyright" unicode="&#xa9;" horiz-adv-x="862" 
d="M793 356c0 50 -9.5 97 -28.5 141s-44.833 82.333 -77.5 115s-71 58.5 -115 77.5s-91 28.5 -141 28.5s-97 -9.5 -141 -28.5s-82.333 -44.833 -115 -77.5s-58.5 -71 -77.5 -115s-28.5 -91 -28.5 -141s9.5 -97 28.5 -141s44.833 -82.333 77.5 -115s71 -58.5 115 -77.5
s91 -28.5 141 -28.5s97 9.5 141 28.5s82.333 44.833 115 77.5s58.5 71 77.5 115s28.5 91 28.5 141zM720 356c0 -41.333 -7.5 -79.833 -22.5 -115.5s-35.5 -66.834 -61.5 -93.501s-56.667 -47.5 -92 -62.5s-73 -22.5 -113 -22.5s-77.667 7.5 -113 22.5s-66 35.833 -92 62.5
s-46.5 57.834 -61.5 93.501s-22.5 74.167 -22.5 115.5s7.5 79.833 22.5 115.5s35.5 66.834 61.5 93.501s56.667 47.5 92 62.5s73 22.5 113 22.5s77.667 -7.5 113 -22.5s66 -35.833 92 -62.5s46.5 -57.834 61.5 -93.501s22.5 -74.167 22.5 -115.5zM568 208l-46 47
c-15.333 -13.333 -29 -22.5 -41 -27.5s-26.667 -7.5 -44 -7.5c-38 0 -65.5 12.833 -82.5 38.5s-25.5 58.167 -25.5 97.5s8.5 71.833 25.5 97.5s44.5 38.5 82.5 38.5c17.333 0 32 -2.5 44 -7.5s25.667 -14.167 41 -27.5l46 47c-19.333 17.333 -39 30.333 -59 39
s-44 13 -72 13c-27.333 0 -52 -4.66699 -74 -14s-40.667 -22.666 -56 -39.999s-27.333 -38.333 -36 -63s-13 -52.334 -13 -83.001s4.33301 -58.334 13 -83.001s20.667 -45.667 36 -63s34 -30.666 56 -39.999s46.667 -14 74 -14c28 0 52 4.33301 72 13s39.667 21.667 59 39z
" />
    <glyph glyph-name="ordfeminine" unicode="&#xaa;" horiz-adv-x="452" 
d="M379 307v270c0 92.667 -55.333 139 -166 139c-34 0 -62 -4 -84 -12s-42.667 -23.333 -62 -46l55 -52c11.333 14.667 23.166 24.834 35.499 30.501s29.5 8.5 51.5 8.5c31.333 0 53.666 -6 66.999 -18s20 -30.667 20 -56v-28h-105c-46 0 -80.667 -11 -104 -33
s-35 -50 -35 -84c0 -17.333 2.66699 -33.5 8 -48.5s13.333 -27.833 24 -38.5c12.667 -12.667 27.5 -21.834 44.5 -27.501s38.167 -8.5 63.5 -8.5c24.667 0 44.834 3 60.501 9s30.834 16.333 45.501 31v-36h81zM296 453c0 -28 -5.66797 -47.333 -17.001 -58
c-10 -10 -21.167 -16.167 -33.5 -18.5s-26.166 -3.5 -41.499 -3.5c-25.333 0 -43.5 4.66699 -54.5 14s-16.5 23 -16.5 41s5.83301 32 17.5 42s29.167 15 52.5 15h93v-32z" />
    <glyph glyph-name="guillemotleft" unicode="&#xab;" horiz-adv-x="592" 
d="M520 42v123l-108 107l108 106v123l-230 -229zM267 42v123l-107 107l107 106v123l-230 -229z" />
    <glyph glyph-name="logicalnot" unicode="&#xac;" 
d="M484 98v236h-436v-95h341v-141h95z" />
    <glyph glyph-name="registered" unicode="&#xae;" horiz-adv-x="862" 
d="M793 356c0 50 -9.5 97 -28.5 141s-44.833 82.333 -77.5 115s-71 58.5 -115 77.5s-91 28.5 -141 28.5s-97 -9.5 -141 -28.5s-82.333 -44.833 -115 -77.5s-58.5 -71 -77.5 -115s-28.5 -91 -28.5 -141s9.5 -97 28.5 -141s44.833 -82.333 77.5 -115s71 -58.5 115 -77.5
s91 -28.5 141 -28.5s97 9.5 141 28.5s82.333 44.833 115 77.5s58.5 71 77.5 115s28.5 91 28.5 141zM720 356c0 -41.333 -7.5 -80 -22.5 -116s-35.5 -67.167 -61.5 -93.5s-56.5 -47.166 -91.5 -62.499s-72.833 -23 -113.5 -23s-78.667 7.66699 -114 23s-66 36.166 -92 62.499
s-46.5 57.5 -61.5 93.5s-22.5 74.667 -22.5 116s7.5 80 22.5 116s35.5 67.167 61.5 93.5s56.667 47.166 92 62.499s73.333 23 114 23s78.5 -7.66699 113.5 -23s65.5 -36.166 91.5 -62.499s46.5 -57.5 61.5 -93.5s22.5 -74.667 22.5 -116zM588 161l-87 165
c21.333 7.33301 39.5 19.833 54.5 37.5s22.5 40.5 22.5 68.5c0 16 -3.16699 31.333 -9.5 46s-15 27.5 -26 38.5s-24.167 19.667 -39.5 26s-32.333 9.5 -51 9.5h-147v-391h72v155h50l80 -155h81zM507 432c0 -16.667 -5.83301 -30.667 -17.5 -42s-27.167 -17 -46.5 -17h-66
v118h66c19.333 0 34.833 -5.66699 46.5 -17s17.5 -25.333 17.5 -42z" />
    <glyph glyph-name="macron" unicode="&#xaf;" horiz-adv-x="500" 
d="M405 622v73h-310v-73h310z" />
    <glyph glyph-name="macron" unicode="&#x2c9;" horiz-adv-x="500" 
d="M405 622v73h-310v-73h310z" />
    <glyph glyph-name="degree" unicode="&#xb0;" horiz-adv-x="471" 
d="M410 549c0 24 -4.66699 46.667 -14 68s-21.833 39.833 -37.5 55.5s-34.167 28.167 -55.5 37.5s-44 14 -68 14s-46.5 -4.66699 -67.5 -14s-39.5 -21.833 -55.5 -37.5s-28.5 -34.167 -37.5 -55.5s-13.5 -44 -13.5 -68s4.5 -46.5 13.5 -67.5s21.5 -39.5 37.5 -55.5
s34.5 -28.5 55.5 -37.5s43.5 -13.5 67.5 -13.5s46.667 4.5 68 13.5s39.833 21.5 55.5 37.5s28.167 34.5 37.5 55.5s14 43.5 14 67.5zM326 549c0 -26 -8.83301 -47.832 -26.5 -65.499s-39.167 -26.5 -64.5 -26.5s-46.666 8.83301 -63.999 26.5s-26 39.5 -26 65.5
s8.66699 48 26 66s38.666 27 63.999 27c12.667 0 24.5 -2.33301 35.5 -7s20.667 -11.334 29 -20.001s14.833 -18.667 19.5 -30s7 -23.333 7 -36z" />
    <glyph glyph-name="plusminus" unicode="&#xb1;" 
d="M482 316v95h-168v168h-95v-168h-168v-95h168v-169h95v169h168zM482 0v95h-431v-95h431z" />
    <glyph glyph-name="twosuperior" unicode="&#xb2;" horiz-adv-x="350" 
d="M305 285v68.999h-167l121 140c14.667 17.333 26 32.833 34 46.5s12 30.834 12 51.501c0 38.667 -12.167 69 -36.5 91s-55.5 33 -93.5 33c-37.333 0 -68.333 -11 -93 -33s-37 -52.333 -37 -91h77c0 21.333 5.5 35.833 16.5 43.5s23.167 11.5 36.5 11.5
c17.333 0 30.5 -5 39.5 -15s13.5 -23.333 13.5 -40c0 -10 -1.66699 -18.833 -5 -26.5s-9 -16.167 -17 -25.5l-161 -186v-69h260z" />
    <glyph glyph-name="threesuperior" unicode="&#xb3;" horiz-adv-x="362" 
d="M317 408c0 26 -5.49805 46.6699 -16.498 62.0029s-24.167 27 -39.5 35c14.667 7.33301 26.667 18.166 36 32.499s14 33.166 14 56.499c0 18 -3.33301 34.5 -10 49.5s-15.667 27.833 -27 38.5s-25 19 -41 25s-33.333 9 -52 9c-36 0 -66.333 -10.667 -91 -32
s-37.667 -51 -39 -89h76c1.33301 16.667 6.83301 29.5 16.5 38.5s22.167 13.5 37.5 13.5c14.667 0 27.334 -4.66699 38.001 -14s16 -23.333 16 -42c0 -15.333 -4.5 -28.333 -13.5 -39s-23.167 -16 -42.5 -16h-11v-66h11c20 0 35.167 -5.5 45.5 -16.5s15.5 -25.5 15.5 -43.5
c0 -19.333 -5.33301 -34.333 -16 -45s-24.667 -16 -42 -16c-15.333 0 -29 4.66699 -41 14s-18.333 23.666 -19 42.999h-77c0 -22 4 -41 12 -57s18.333 -29.167 31 -39.5s27.167 -17.833 43.5 -22.5s33.166 -7 50.499 -7c18 0 35.167 2.66699 51.5 8s30.666 13.333 42.999 24
s22.166 24 29.499 40s11 34.667 11 56z" />
    <glyph glyph-name="acute" unicode="&#xb4;" horiz-adv-x="500" 
d="M386 761h-113l-75 -162h77z" />
    <glyph glyph-name="mu" unicode="&#xb5;" horiz-adv-x="569" 
d="M487 0l0.00195312 507.001h-102v-309c0 -39.333 -10.167 -68 -30.5 -86s-44.833 -27 -73.5 -27s-53 9 -73 27s-30 46.667 -30 86v309h-102v-712h102v224c20 -16.667 45 -25 75 -25c25.333 0 49.666 4.66699 72.999 14s43.666 23.666 60.999 42.999v-51h100z" />
    <glyph glyph-name="mu" unicode="&#x3bc;" horiz-adv-x="569" 
d="M487 0l0.00195312 507.001h-102v-309c0 -39.333 -10.167 -68 -30.5 -86s-44.833 -27 -73.5 -27s-53 9 -73 27s-30 46.667 -30 86v309h-102v-712h102v224c20 -16.667 45 -25 75 -25c25.333 0 49.666 4.66699 72.999 14s43.666 23.666 60.999 42.999v-51h100z" />
    <glyph glyph-name="paragraph" unicode="&#xb6;" horiz-adv-x="637" 
d="M544 -205v916.999h-281c-34 0 -65 -4.83301 -93 -14.5s-51.667 -23.167 -71 -40.5s-34.333 -38.166 -45 -62.499s-16 -51.5 -16 -81.5c0 -26 5 -50.833 15 -74.5s23.667 -44.5 41 -62.5s37.833 -32.333 61.5 -43s49.167 -16 76.5 -16v-522h102v820h108v-820h102z" />
    <glyph glyph-name="periodcentered" unicode="&#xb7;" horiz-adv-x="278" 
d="M200 217v122h-122v-122h122z" />
    <glyph glyph-name="cedilla" unicode="&#xb8;" horiz-adv-x="500" 
d="M319 -64h-82l-70 -147h101z" />
    <glyph glyph-name="onesuperior" unicode="&#xb9;" horiz-adv-x="277" 
d="M204 285v427h-77l-87 -75v-87l87 76v-341h77z" />
    <glyph glyph-name="ordmasculine" unicode="&#xba;" horiz-adv-x="458" 
d="M398 510c0 34 -3.16699 63.833 -9.5 89.5s-19.166 48.5 -38.499 68.5c-13.333 13.333 -29.833 24.666 -49.5 33.999s-43.5 14 -71.5 14s-51.667 -4.66699 -71 -14s-35.666 -20.666 -48.999 -33.999c-19.333 -20 -32.166 -42.833 -38.499 -68.5s-9.5 -55.5 -9.5 -89.5
c0 -34.667 3.16699 -64.834 9.5 -90.501s19.166 -48.5 38.499 -68.5c13.333 -13.333 29.666 -24.666 48.999 -33.999s43 -14 71 -14s51.833 4.66699 71.5 14s36.167 20.666 49.5 33.999c19.333 20 32.166 42.833 38.499 68.5s9.5 55.834 9.5 90.501zM314 510
c0 -21.333 -1.16699 -41.833 -3.5 -61.5s-9.83301 -35.834 -22.5 -48.501c-15.333 -15.333 -35 -23 -59 -23c-23.333 0 -42.666 7.66699 -57.999 23c-12.667 12.667 -20.334 28.834 -23.001 48.501s-4 40.167 -4 61.5s1.33301 41.666 4 60.999s10.334 35.333 23.001 48
c15.333 15.333 34.666 23 57.999 23c24 0 43.667 -7.66699 59 -23c12.667 -12.667 20.167 -28.667 22.5 -48s3.5 -39.666 3.5 -60.999z" />
    <glyph glyph-name="guillemotright" unicode="&#xbb;" horiz-adv-x="592" 
d="M556 272l-231 229v-123l107 -106l-107 -107v-123zM303 272l-231 229v-123l108 -106l-108 -107v-123z" />
    <glyph glyph-name="onequarter" unicode="&#xbc;" horiz-adv-x="808" 
d="M768 61v71h-40v83h-74v-83h-91l147 295h-83l-147 -295v-71h174v-61h74v61h40zM596 712h-81l-335 -712h81zM204 285v427h-77l-87 -75v-87l87 76v-341h77z" />
    <glyph glyph-name="onehalf" unicode="&#xbd;" horiz-adv-x="827" 
d="M782 0l-0.000976562 68.999h-167l121 140c14.667 17.333 26 32.833 34 46.5s12 30.834 12 51.501c0 38.667 -12.167 69 -36.5 91s-55.5 33 -93.5 33c-37.333 0 -68.166 -11 -92.499 -33s-36.5 -52.333 -36.5 -91h76c0 21.333 5.5 35.833 16.5 43.5s23.167 11.5 36.5 11.5
c17.333 0 30.5 -5 39.5 -15s13.5 -23.333 13.5 -40c0 -10 -1.66699 -18.833 -5 -26.5s-9 -16.167 -17 -25.5l-160 -186v-69h259zM587.999 711.999h-81l-335 -712h81zM203.999 284.999v427h-77l-87 -75v-87l87 76v-341h77z" />
    <glyph glyph-name="threequarters" unicode="&#xbe;" horiz-adv-x="844" 
d="M804 61v71h-40v83h-73v-83h-91l147 295h-84l-146 -295v-71h174v-61h73v61h40zM638 712h-81l-335 -712h81zM317 408c0 26 -5.49805 46.6699 -16.498 62.0029s-24.167 27 -39.5 35c14.667 7.33301 26.667 18.166 36 32.499s14 33.166 14 56.499
c0 18 -3.33301 34.5 -10 49.5s-15.667 27.833 -27 38.5s-25 19 -41 25s-33.333 9 -52 9c-36 0 -66.333 -10.667 -91 -32s-37.667 -51 -39 -89h76c1.33301 16.667 6.83301 29.5 16.5 38.5s22.167 13.5 37.5 13.5c14.667 0 27.334 -4.66699 38.001 -14s16 -23.333 16 -42
c0 -15.333 -4.5 -28.333 -13.5 -39s-23.167 -16 -42.5 -16h-11v-66h11c20 0 35.167 -5.5 45.5 -16.5s15.5 -25.5 15.5 -43.5c0 -19.333 -5.33301 -34.333 -16 -45s-24.667 -16 -42 -16c-15.333 0 -29 4.66699 -41 14s-18.333 23.666 -19 42.999h-77c0 -22 4 -41 12 -57
s18.333 -29.167 31 -39.5s27.167 -17.833 43.5 -22.5s33.166 -7 50.499 -7c18 0 35.167 2.66699 51.5 8s30.666 13.333 42.999 24s22.166 24 29.499 40s11 34.667 11 56z" />
    <glyph glyph-name="questiondown" unicode="&#xbf;" horiz-adv-x="511" 
d="M291 398v109h-112v-109h112zM440 -19h-102.001c0 -27.333 -8.5 -50.833 -25.5 -70.5s-41.167 -29.5 -72.5 -29.5c-29.333 0 -52.833 9.5 -70.5 28.5s-26.5 42.5 -26.5 70.5c0 14 2.83301 27.167 8.5 39.5s13.167 24.5 22.5 36.5l77 105c12 16 20.833 31.333 26.5 46
s8.5 32.334 8.5 53.001v36h-102v-30c0 -8 -1.66699 -17.167 -5 -27.5s-7.66602 -19.166 -12.999 -26.499l-78 -108c-13.333 -18.667 -24.5 -37.834 -33.5 -57.501s-13.5 -41.5 -13.5 -65.5c0 -29.333 5.33301 -55.833 16 -79.5s25 -43.834 43 -60.501s39 -29.5 63 -38.5
s49.667 -13.5 77 -13.5c28 0 54.167 4.66699 78.5 14s45.5 22.5 63.5 39.5s32.167 37.333 42.5 61s15.5 49.5 15.5 77.5z" />
    <glyph glyph-name="Agrave" unicode="&#xc0;" horiz-adv-x="625" 
d="M617 0l-261 712h-87l-261 -712h115l49 143h281l49 -143h115zM423 235h-219l111 316zM361 781l-75 162h-113l111 -162h77z" />
    <glyph glyph-name="Aacute" unicode="&#xc1;" horiz-adv-x="625" 
d="M617 0l-261 712h-87l-261 -712h115l49 143h281l49 -143h115zM423 235h-219l111 316zM446 943h-113l-75 -162h77z" />
    <glyph glyph-name="Acircumflex" unicode="&#xc2;" horiz-adv-x="625" 
d="M617 0l-261 712h-87l-261 -712h115l49 143h281l49 -143h115zM423 235h-219l111 316zM482 781l-129 161h-86l-129 -161h85l87 97l87 -97h85z" />
    <glyph glyph-name="Atilde" unicode="&#xc3;" horiz-adv-x="625" 
d="M617 0l-261 712h-87l-261 -712h115l49 143h281l49 -143h115zM423 235h-219l111 316zM478 849l-48.001 47c-13.333 -13.333 -24.5 -21.833 -33.5 -25.5s-17.5 -5.5 -25.5 -5.5c-10 0 -19.167 1.66699 -27.5 5s-17.5 8 -27.5 14c-13.333 8 -25.5 14 -36.5 18
s-23.833 6 -38.5 6c-16 0 -31.667 -3.5 -47 -10.5s-34.333 -21.833 -57 -44.5l48 -47c14 14 25 22.5 33 25.5s16.333 4.5 25 4.5c10 0 19.5 -1.83301 28.5 -5.5s18.167 -8.16699 27.5 -13.5c13.333 -7.33301 25.5 -13 36.5 -17s23.833 -6 38.5 -6
c15.333 0 30.833 3.5 46.5 10.5s34.834 21.833 57.501 44.5z" />
    <glyph glyph-name="Adieresis" unicode="&#xc4;" horiz-adv-x="625" 
d="M617 0l-261 712h-87l-261 -712h115l49 143h281l49 -143h115zM423 235h-219l111 316zM464 786v108h-92v-108h92zM248 786v108h-92v-108h92z" />
    <glyph glyph-name="Aring" unicode="&#xc5;" horiz-adv-x="625" 
d="M617 0l-261 712h-87l-261 -712h115l49 143h281l49 -143h115zM423 235h-219l111 316zM435 875c0 17.333 -3.33301 33.5 -10 48.5s-15.667 28.167 -27 39.5s-24.5 20.333 -39.5 27s-31.167 10 -48.5 10s-33.5 -3.33301 -48.5 -10s-28.167 -15.667 -39.5 -27
s-20.333 -24.5 -27 -39.5s-10 -31.167 -10 -48.5s3.33301 -33.5 10 -48.5s15.667 -28.167 27 -39.5s24.5 -20.333 39.5 -27s31.167 -10 48.5 -10s33.5 3.33301 48.5 10s28.167 15.667 39.5 27s20.333 24.5 27 39.5s10 31.167 10 48.5zM374 875
c0 -17.333 -6.33301 -32.166 -19 -44.499s-27.667 -18.5 -45 -18.5s-32.333 6.16699 -45 18.5s-19 27.166 -19 44.499s6.33301 32.166 19 44.499s27.667 18.5 45 18.5s32.333 -6.16699 45 -18.5s19 -27.166 19 -44.499z" />
    <glyph glyph-name="AE" unicode="&#xc6;" horiz-adv-x="952" 
d="M897 0v97h-347v212h296v97h-296v209h347v97h-518l-374 -712h118l84 162h235v-162h455zM442 254h-188l188 361v-361z" />
    <glyph glyph-name="Ccedilla" unicode="&#xc7;" horiz-adv-x="628" 
d="M577 213l-109 0.00195312c-8.66699 -36 -25 -65.333 -49 -88s-56 -34 -96 -34c-21.333 0 -41 3.83301 -59 11.5s-33.333 18.167 -46 31.5c-8.66699 9.33301 -15.834 19.5 -21.501 30.5s-10 24.667 -13 41s-5.16699 36.5 -6.5 60.5s-2 54 -2 90s0.666992 66 2 90
s3.5 44.167 6.5 60.5s7.33301 30 13 41s12.834 21.167 21.501 30.5c12.667 13.333 28 23.833 46 31.5s37.667 11.5 59 11.5c40 0 71.833 -11.333 95.5 -34s39.834 -52 48.501 -88h110c-12.667 71.333 -41.667 125.666 -87 162.999s-101 56 -167 56
c-37.333 0 -71.666 -6.5 -102.999 -19.5s-59.333 -31.833 -84 -56.5c-17.333 -17.333 -30.666 -35.666 -39.999 -54.999s-16.166 -40.333 -20.499 -63s-6.83301 -47.834 -7.5 -75.501s-1 -58.5 -1 -92.5s0.333008 -64.833 1 -92.5s3.16699 -52.834 7.5 -75.501
s11.166 -43.667 20.499 -63s22.666 -37.666 39.999 -54.999c24.667 -24.667 52.667 -43.5 84 -56.5s65.666 -19.5 102.999 -19.5c32 0 62.167 4.66699 90.5 14s53.666 23.333 75.999 42s41 41.667 56 69s25.5 58.666 31.5 93.999zM374 -63.998h-82l-70 -147h101z" />
    <glyph glyph-name="Egrave" unicode="&#xc8;" horiz-adv-x="603" 
d="M548 0v97h-347v214h296v96h-296v208h347v97h-455v-712h455zM363 781l-75 162h-113l111 -162h77z" />
    <glyph glyph-name="Eacute" unicode="&#xc9;" horiz-adv-x="603" 
d="M548 0v97h-347v214h296v96h-296v208h347v97h-455v-712h455zM447 943h-113l-75 -162h77z" />
    <glyph glyph-name="Ecircumflex" unicode="&#xca;" horiz-adv-x="603" 
d="M548 0v97h-347v214h296v96h-296v208h347v97h-455v-712h455zM483 781l-129 161h-86l-129 -161h85l87 97l87 -97h85z" />
    <glyph glyph-name="Edieresis" unicode="&#xcb;" horiz-adv-x="603" 
d="M548 0v97h-347v214h296v96h-296v208h347v97h-455v-712h455zM465 786v108h-92v-108h92zM249 786v108h-92v-108h92z" />
    <glyph glyph-name="Igrave" unicode="&#xcc;" horiz-adv-x="294" 
d="M201 0v712h-108v-712h108zM282 781l-75 162h-113l111 -162h77z" />
    <glyph glyph-name="Iacute" unicode="&#xcd;" horiz-adv-x="294" 
d="M201 0v712h-108v-712h108zM282 943h-113l-75 -162h77z" />
    <glyph glyph-name="Icircumflex" unicode="&#xce;" horiz-adv-x="294" 
d="M201 0v712h-108v-712h108zM437 781l-129 161h-86l-129 -161h85l87 97l87 -97h85z" />
    <glyph glyph-name="Idieresis" unicode="&#xcf;" horiz-adv-x="294" 
d="M201 0v712h-108v-712h108zM402 786v108h-92v-108h92zM186 786v108h-92v-108h92z" />
    <glyph glyph-name="Eth" unicode="&#xd0;" horiz-adv-x="684" 
d="M617 356c0 34.667 -0.335938 64.498 -1.00293 89.498s-2.66699 47.333 -6 67s-8.66602 37.667 -15.999 54s-17.666 33.166 -30.999 50.499c-49.333 63.333 -116.333 95 -201 95h-250v-311h-74v-83h74v-318h247c45.333 0 85 8.66699 119 26s62.333 40 85 68
c12.667 16 22.667 31.833 30 47.5s12.833 33.334 16.5 53.001s5.83398 42.334 6.50098 68.001s1 56.834 1 93.501zM508.997 352.998c0 -33.333 -0.330078 -60.499 -0.99707 -81.499s-1.83398 -38.333 -3.50098 -52s-4.33398 -25 -8.00098 -34s-8.5 -17.833 -14.5 -26.5
c-28.667 -42 -73 -63 -133 -63h-129v222h138v83h-138v215h129c30 0 55.167 -5 75.5 -15s38.166 -25.667 53.499 -47c6.66699 -9.33301 12.167 -19 16.5 -29s7.5 -22.333 9.5 -37s3.33301 -32.834 4 -54.501s1 -48.5 1 -80.5z" />
    <glyph glyph-name="Ntilde" unicode="&#xd1;" horiz-adv-x="721" 
d="M629 0v712h-108v-500l-329 500h-99v-712h108v501l329 -501h99zM530 849l-48.001 47c-13.333 -13.333 -24.5 -21.833 -33.5 -25.5s-17.5 -5.5 -25.5 -5.5c-10 0 -19.167 1.66699 -27.5 5s-17.5 8 -27.5 14c-13.333 8 -25.5 14 -36.5 18s-23.833 6 -38.5 6
c-16 0 -31.667 -3.5 -47 -10.5s-34.333 -21.833 -57 -44.5l48 -47c14 14 25 22.5 33 25.5s16.333 4.5 25 4.5c10 0 19.5 -1.83301 28.5 -5.5s18.167 -8.16699 27.5 -13.5c13.333 -7.33301 25.5 -13 36.5 -17s23.833 -6 38.5 -6c15.333 0 30.833 3.5 46.5 10.5
s34.834 21.833 57.501 44.5z" />
    <glyph glyph-name="Ograve" unicode="&#xd2;" horiz-adv-x="647" 
d="M579 356c0 34 -0.333008 64.833 -1 92.5s-3 52.834 -7 75.501s-10.667 43.667 -20 63s-22.666 37.666 -39.999 54.999c-24.667 24.667 -52.667 43.5 -84 56.5s-66 19.5 -104 19.5s-72.5 -6.5 -103.5 -19.5s-58.833 -31.833 -83.5 -56.5
c-17.333 -17.333 -30.666 -35.666 -39.999 -54.999s-16.166 -40.333 -20.499 -63s-6.83301 -47.834 -7.5 -75.501s-1 -58.5 -1 -92.5s0.333008 -64.833 1 -92.5s3.16699 -52.834 7.5 -75.501s11.166 -43.667 20.499 -63s22.666 -37.666 39.999 -54.999
c24.667 -24.667 52.5 -43.5 83.5 -56.5s65.5 -19.5 103.5 -19.5s72.667 6.5 104 19.5s59.333 31.833 84 56.5c17.333 17.333 30.666 35.666 39.999 54.999s16 40.333 20 63s6.33301 47.834 7 75.501s1 58.5 1 92.5zM471 356c0 -36 -0.5 -65.833 -1.5 -89.5
s-3 -43.667 -6 -60s-7.33301 -30 -13 -41s-12.834 -21.167 -21.501 -30.5c-12.667 -13.333 -28.167 -24 -46.5 -32s-38.166 -12 -59.499 -12s-41.166 4 -59.499 12s-33.833 18.667 -46.5 32c-8.66699 9.33301 -15.834 19.5 -21.501 30.5s-10 24.667 -13 41s-5 36.333 -6 60
s-1.5 53.5 -1.5 89.5s0.5 65.833 1.5 89.5s3 43.667 6 60s7.33301 30 13 41s12.834 21.167 21.501 30.5c12.667 13.333 28.167 24 46.5 32s38.166 12 59.499 12s41.166 -4 59.499 -12s33.833 -18.667 46.5 -32c8.66699 -9.33301 15.834 -19.5 21.501 -30.5
s10 -24.667 13 -41s5 -36.333 6 -60s1.5 -53.5 1.5 -89.5zM375 781l-75 162h-113l111 -162h77z" />
    <glyph glyph-name="Oacute" unicode="&#xd3;" horiz-adv-x="647" 
d="M579 356c0 34 -0.333008 64.833 -1 92.5s-3 52.834 -7 75.501s-10.667 43.667 -20 63s-22.666 37.666 -39.999 54.999c-24.667 24.667 -52.667 43.5 -84 56.5s-66 19.5 -104 19.5s-72.5 -6.5 -103.5 -19.5s-58.833 -31.833 -83.5 -56.5
c-17.333 -17.333 -30.666 -35.666 -39.999 -54.999s-16.166 -40.333 -20.499 -63s-6.83301 -47.834 -7.5 -75.501s-1 -58.5 -1 -92.5s0.333008 -64.833 1 -92.5s3.16699 -52.834 7.5 -75.501s11.166 -43.667 20.499 -63s22.666 -37.666 39.999 -54.999
c24.667 -24.667 52.5 -43.5 83.5 -56.5s65.5 -19.5 103.5 -19.5s72.667 6.5 104 19.5s59.333 31.833 84 56.5c17.333 17.333 30.666 35.666 39.999 54.999s16 40.333 20 63s6.33301 47.834 7 75.501s1 58.5 1 92.5zM471 356c0 -36 -0.5 -65.833 -1.5 -89.5
s-3 -43.667 -6 -60s-7.33301 -30 -13 -41s-12.834 -21.167 -21.501 -30.5c-12.667 -13.333 -28.167 -24 -46.5 -32s-38.166 -12 -59.499 -12s-41.166 4 -59.499 12s-33.833 18.667 -46.5 32c-8.66699 9.33301 -15.834 19.5 -21.501 30.5s-10 24.667 -13 41s-5 36.333 -6 60
s-1.5 53.5 -1.5 89.5s0.5 65.833 1.5 89.5s3 43.667 6 60s7.33301 30 13 41s12.834 21.167 21.501 30.5c12.667 13.333 28.167 24 46.5 32s38.166 12 59.499 12s41.166 -4 59.499 -12s33.833 -18.667 46.5 -32c8.66699 -9.33301 15.834 -19.5 21.501 -30.5
s10 -24.667 13 -41s5 -36.333 6 -60s1.5 -53.5 1.5 -89.5zM459 943h-113l-75 -162h77z" />
    <glyph glyph-name="Ocircumflex" unicode="&#xd4;" horiz-adv-x="647" 
d="M579 356c0 34 -0.333008 64.833 -1 92.5s-3 52.834 -7 75.501s-10.667 43.667 -20 63s-22.666 37.666 -39.999 54.999c-24.667 24.667 -52.667 43.5 -84 56.5s-66 19.5 -104 19.5s-72.5 -6.5 -103.5 -19.5s-58.833 -31.833 -83.5 -56.5
c-17.333 -17.333 -30.666 -35.666 -39.999 -54.999s-16.166 -40.333 -20.499 -63s-6.83301 -47.834 -7.5 -75.501s-1 -58.5 -1 -92.5s0.333008 -64.833 1 -92.5s3.16699 -52.834 7.5 -75.501s11.166 -43.667 20.499 -63s22.666 -37.666 39.999 -54.999
c24.667 -24.667 52.5 -43.5 83.5 -56.5s65.5 -19.5 103.5 -19.5s72.667 6.5 104 19.5s59.333 31.833 84 56.5c17.333 17.333 30.666 35.666 39.999 54.999s16 40.333 20 63s6.33301 47.834 7 75.501s1 58.5 1 92.5zM471 356c0 -36 -0.5 -65.833 -1.5 -89.5
s-3 -43.667 -6 -60s-7.33301 -30 -13 -41s-12.834 -21.167 -21.501 -30.5c-12.667 -13.333 -28.167 -24 -46.5 -32s-38.166 -12 -59.499 -12s-41.166 4 -59.499 12s-33.833 18.667 -46.5 32c-8.66699 9.33301 -15.834 19.5 -21.501 30.5s-10 24.667 -13 41s-5 36.333 -6 60
s-1.5 53.5 -1.5 89.5s0.5 65.833 1.5 89.5s3 43.667 6 60s7.33301 30 13 41s12.834 21.167 21.501 30.5c12.667 13.333 28.167 24 46.5 32s38.166 12 59.499 12s41.166 -4 59.499 -12s33.833 -18.667 46.5 -32c8.66699 -9.33301 15.834 -19.5 21.501 -30.5
s10 -24.667 13 -41s5 -36.333 6 -60s1.5 -53.5 1.5 -89.5zM495 781l-129 161h-86l-129 -161h85l87 97l87 -97h85z" />
    <glyph glyph-name="Otilde" unicode="&#xd5;" horiz-adv-x="647" 
d="M579 356c0 34 -0.333008 64.833 -1 92.5s-3 52.834 -7 75.501s-10.667 43.667 -20 63s-22.666 37.666 -39.999 54.999c-24.667 24.667 -52.667 43.5 -84 56.5s-66 19.5 -104 19.5s-72.5 -6.5 -103.5 -19.5s-58.833 -31.833 -83.5 -56.5
c-17.333 -17.333 -30.666 -35.666 -39.999 -54.999s-16.166 -40.333 -20.499 -63s-6.83301 -47.834 -7.5 -75.501s-1 -58.5 -1 -92.5s0.333008 -64.833 1 -92.5s3.16699 -52.834 7.5 -75.501s11.166 -43.667 20.499 -63s22.666 -37.666 39.999 -54.999
c24.667 -24.667 52.5 -43.5 83.5 -56.5s65.5 -19.5 103.5 -19.5s72.667 6.5 104 19.5s59.333 31.833 84 56.5c17.333 17.333 30.666 35.666 39.999 54.999s16 40.333 20 63s6.33301 47.834 7 75.501s1 58.5 1 92.5zM471 356c0 -36 -0.5 -65.833 -1.5 -89.5
s-3 -43.667 -6 -60s-7.33301 -30 -13 -41s-12.834 -21.167 -21.501 -30.5c-12.667 -13.333 -28.167 -24 -46.5 -32s-38.166 -12 -59.499 -12s-41.166 4 -59.499 12s-33.833 18.667 -46.5 32c-8.66699 9.33301 -15.834 19.5 -21.501 30.5s-10 24.667 -13 41s-5 36.333 -6 60
s-1.5 53.5 -1.5 89.5s0.5 65.833 1.5 89.5s3 43.667 6 60s7.33301 30 13 41s12.834 21.167 21.501 30.5c12.667 13.333 28.167 24 46.5 32s38.166 12 59.499 12s41.166 -4 59.499 -12s33.833 -18.667 46.5 -32c8.66699 -9.33301 15.834 -19.5 21.501 -30.5
s10 -24.667 13 -41s5 -36.333 6 -60s1.5 -53.5 1.5 -89.5zM492 849l-48.001 47c-13.333 -13.333 -24.5 -21.833 -33.5 -25.5s-17.5 -5.5 -25.5 -5.5c-10 0 -19.167 1.66699 -27.5 5s-17.5 8 -27.5 14c-13.333 8 -25.5 14 -36.5 18s-23.833 6 -38.5 6
c-16 0 -31.667 -3.5 -47 -10.5s-34.333 -21.833 -57 -44.5l48 -47c14 14 25 22.5 33 25.5s16.333 4.5 25 4.5c10 0 19.5 -1.83301 28.5 -5.5s18.167 -8.16699 27.5 -13.5c13.333 -7.33301 25.5 -13 36.5 -17s23.833 -6 38.5 -6c15.333 0 30.833 3.5 46.5 10.5
s34.834 21.833 57.501 44.5z" />
    <glyph glyph-name="Odieresis" unicode="&#xd6;" horiz-adv-x="647" 
d="M579 356c0 34 -0.333008 64.833 -1 92.5s-3 52.834 -7 75.501s-10.667 43.667 -20 63s-22.666 37.666 -39.999 54.999c-24.667 24.667 -52.667 43.5 -84 56.5s-66 19.5 -104 19.5s-72.5 -6.5 -103.5 -19.5s-58.833 -31.833 -83.5 -56.5
c-17.333 -17.333 -30.666 -35.666 -39.999 -54.999s-16.166 -40.333 -20.499 -63s-6.83301 -47.834 -7.5 -75.501s-1 -58.5 -1 -92.5s0.333008 -64.833 1 -92.5s3.16699 -52.834 7.5 -75.501s11.166 -43.667 20.499 -63s22.666 -37.666 39.999 -54.999
c24.667 -24.667 52.5 -43.5 83.5 -56.5s65.5 -19.5 103.5 -19.5s72.667 6.5 104 19.5s59.333 31.833 84 56.5c17.333 17.333 30.666 35.666 39.999 54.999s16 40.333 20 63s6.33301 47.834 7 75.501s1 58.5 1 92.5zM471 356c0 -36 -0.5 -65.833 -1.5 -89.5
s-3 -43.667 -6 -60s-7.33301 -30 -13 -41s-12.834 -21.167 -21.501 -30.5c-12.667 -13.333 -28.167 -24 -46.5 -32s-38.166 -12 -59.499 -12s-41.166 4 -59.499 12s-33.833 18.667 -46.5 32c-8.66699 9.33301 -15.834 19.5 -21.501 30.5s-10 24.667 -13 41s-5 36.333 -6 60
s-1.5 53.5 -1.5 89.5s0.5 65.833 1.5 89.5s3 43.667 6 60s7.33301 30 13 41s12.834 21.167 21.501 30.5c12.667 13.333 28.167 24 46.5 32s38.166 12 59.499 12s41.166 -4 59.499 -12s33.833 -18.667 46.5 -32c8.66699 -9.33301 15.834 -19.5 21.501 -30.5
s10 -24.667 13 -41s5 -36.333 6 -60s1.5 -53.5 1.5 -89.5zM477 786v108h-92v-108h92zM261 786v108h-92v-108h92z" />
    <glyph glyph-name="multiply" unicode="&#xd7;" 
d="M476 132l-146 146l146 146l-64 64l-146 -146l-145 146l-64 -64l146 -146l-146 -146l64 -63l145 145l146 -145z" />
    <glyph glyph-name="Oslash" unicode="&#xd8;" horiz-adv-x="652" 
d="M579 356c0 34 -0.333984 64.833 -1.00098 92.5s-3 52.834 -7 75.501s-10.667 43.667 -20 63s-22.666 37.666 -39.999 54.999c-1.33301 1.33301 -2.5 2.33301 -3.5 3s-2.16699 1.66699 -3.5 3l52 108h-83l-30 -65c-17.333 8.66699 -36.166 15.334 -56.499 20.001
s-41.5 7 -63.5 7c-38 0 -72.5 -6.5 -103.5 -19.5s-58.833 -31.833 -83.5 -56.5c-17.333 -17.333 -30.666 -35.666 -39.999 -54.999s-16.166 -40.333 -20.499 -63s-6.83301 -47.834 -7.5 -75.501s-1 -58.5 -1 -92.5s0.333008 -64.833 1 -92.5s3.16699 -52.834 7.5 -75.501
s11.166 -43.667 20.499 -63s22.666 -37.666 39.999 -54.999l6 -6l-51 -108h82l31 65c17.333 -8.66699 36 -15.334 56 -20.001s41 -7 63 -7c38 0 72.667 6.5 104 19.5s59.333 31.833 84 56.5c17.333 17.333 30.666 35.666 39.999 54.999s16 40.333 20 63
s6.33301 47.834 7 75.501s1 58.5 1 92.5zM402.999 599l-207.001 -433.001c-4 8.66699 -7.33301 18.334 -10 29.001s-4.66699 23.5 -6 38.5s-2.33301 32.5 -3 52.5s-1 43.333 -1 70c0 36 0.5 65.833 1.5 89.5s3 43.667 6 60s7.33301 30 13 41s12.834 21.167 21.501 30.5
c12.667 13.333 28 24 46 32s37.667 12 59 12c29.333 0 56 -7.33301 80 -22zM470.998 355.999c0 -36 -0.501953 -65.832 -1.50195 -89.499s-3 -43.667 -6 -60s-7.33301 -30 -13 -41s-12.834 -21.167 -21.501 -30.5c-12.667 -13.333 -28.167 -24 -46.5 -32
s-38.166 -12 -59.499 -12c-29.333 0 -55.666 7.33301 -78.999 22l207 433c4 -8.66699 7.33301 -18.5 10 -29.5s4.83398 -24 6.50098 -39s2.66699 -32.333 3 -52s0.5 -42.834 0.5 -69.501z" />
    <glyph glyph-name="Ugrave" unicode="&#xd9;" horiz-adv-x="675" 
d="M593 240l0.000976562 472h-108v-467c0 -48 -13.5 -85.667 -40.5 -113s-62.833 -41 -107.5 -41s-80.334 13.667 -107.001 41s-40 65 -40 113v467h-108v-472c0 -36.667 6.5 -70.167 19.5 -100.5s30.833 -56.166 53.5 -77.499s49.667 -38 81 -50s65 -18 101 -18
s69.667 6 101 18s58.5 28.667 81.5 50s41 47.166 54 77.499s19.5 63.833 19.5 100.5zM390.001 781l-75 162h-113l111 -162h77z" />
    <glyph glyph-name="Uacute" unicode="&#xda;" horiz-adv-x="675" 
d="M593 240l0.000976562 472h-108v-467c0 -48 -13.5 -85.667 -40.5 -113s-62.833 -41 -107.5 -41s-80.334 13.667 -107.001 41s-40 65 -40 113v467h-108v-472c0 -36.667 6.5 -70.167 19.5 -100.5s30.833 -56.166 53.5 -77.499s49.667 -38 81 -50s65 -18 101 -18
s69.667 6 101 18s58.5 28.667 81.5 50s41 47.166 54 77.499s19.5 63.833 19.5 100.5zM474.001 943h-113l-75 -162h77z" />
    <glyph glyph-name="Ucircumflex" unicode="&#xdb;" horiz-adv-x="675" 
d="M593 240l0.000976562 472h-108v-467c0 -48 -13.5 -85.667 -40.5 -113s-62.833 -41 -107.5 -41s-80.334 13.667 -107.001 41s-40 65 -40 113v467h-108v-472c0 -36.667 6.5 -70.167 19.5 -100.5s30.833 -56.166 53.5 -77.499s49.667 -38 81 -50s65 -18 101 -18
s69.667 6 101 18s58.5 28.667 81.5 50s41 47.166 54 77.499s19.5 63.833 19.5 100.5zM510.001 781l-129 161h-86l-129 -161h85l87 97l87 -97h85z" />
    <glyph glyph-name="Udieresis" unicode="&#xdc;" horiz-adv-x="675" 
d="M593 240l0.000976562 472h-108v-467c0 -48 -13.5 -85.667 -40.5 -113s-62.833 -41 -107.5 -41s-80.334 13.667 -107.001 41s-40 65 -40 113v467h-108v-472c0 -36.667 6.5 -70.167 19.5 -100.5s30.833 -56.166 53.5 -77.499s49.667 -38 81 -50s65 -18 101 -18
s69.667 6 101 18s58.5 28.667 81.5 50s41 47.166 54 77.499s19.5 63.833 19.5 100.5zM492.001 786v108h-92v-108h92zM276.001 786v108h-92v-108h92z" />
    <glyph glyph-name="Yacute" unicode="&#xdd;" horiz-adv-x="544" 
d="M539 712h-118l-149 -313l-149 313h-118l213 -419v-293h108v293zM408 943h-113l-75 -162h77z" />
    <glyph glyph-name="Thorn" unicode="&#xde;" horiz-adv-x="637" 
d="M591 359c0 30.667 -5.33301 59.333 -16 86s-26 49.5 -46 68.5s-44 34 -72 45s-59.333 16.5 -94 16.5h-162v137h-108v-712h108v144h162c34.667 0 66 5.33301 94 16s52 25.667 72 45s35.333 42 46 68s16 54.667 16 86zM482 358.999c0 -38 -11.5 -67.167 -34.5 -87.5
s-53.5 -30.5 -91.5 -30.5h-155v237h155c38 0 68.5 -10.333 91.5 -31s34.5 -50 34.5 -88z" />
    <glyph glyph-name="germandbls" unicode="&#xdf;" horiz-adv-x="565" 
d="M501 152l-0.00292969 165.003c0 32 -5.16699 56.333 -15.5 73s-26.166 30.667 -47.499 42c18 11.333 32.833 26 44.5 44s17.5 42 17.5 72c0 29.333 -5.16699 54.833 -15.5 76.5s-24.833 39.5 -43.5 53.5s-40.5 24.333 -65.5 31s-51.833 10 -80.5 10
c-31.333 0 -60.166 -4 -86.499 -12s-49 -20.333 -68 -37s-33.667 -37.334 -44 -62.001s-15.5 -53.334 -15.5 -86.001v-522h103v516c0 34.667 8 62.167 24 82.5s44 30.5 84 30.5c37.333 0 64.333 -8 81 -24c7.33301 -7.33301 13.333 -16.166 18 -26.499s7 -21.5 7 -33.5
c0 -24.667 -7 -43.334 -21 -56.001s-31.667 -19 -53 -19h-31v-81h35c22 0 39.333 -6.33301 52 -19c12 -11.333 18 -29 18 -53v-156c0 -27.333 -7 -46.333 -21 -57c-7.33301 -6 -14.666 -10.333 -21.999 -13s-17.333 -4 -30 -4h-32v-87h53c26 0 48 3.16699 66 9.5
s34 16.166 48 29.499c13.333 12.667 23.5 28.667 30.5 48s10.5 41 10.5 65z" />
    <glyph glyph-name="agrave" unicode="&#xe0;" horiz-adv-x="530" 
d="M454 0v339c0 116 -69.667 174 -209 174c-42 0 -76.833 -5.16699 -104.5 -15.5s-53.5 -29.5 -77.5 -57.5l67 -63c14 18 29 30.667 45 38s38 11 66 11c40 0 68.5 -7.83301 85.5 -23.5s25.5 -39.5 25.5 -71.5v-36h-134c-58.667 0 -102.5 -13.667 -131.5 -41
s-43.5 -62.333 -43.5 -105c0 -44.667 13.333 -81 40 -109c15.333 -15.333 33.833 -26.833 55.5 -34.5s48.5 -11.5 80.5 -11.5c31.333 0 57 4 77 12s39.333 21.333 58 40v-46h100zM352 183c0 -35.333 -7.33496 -60.332 -22.002 -74.999
c-13.333 -13.333 -27.666 -21.5 -42.999 -24.5s-32.666 -4.5 -51.999 -4.5c-32 0 -55.5 6.16699 -70.5 18.5s-22.5 30.166 -22.5 53.499s7.66699 41.333 23 54s38 19 68 19h119v-41zM308.998 599.001l-75 162h-113l111 -162h77z" />
    <glyph glyph-name="aacute" unicode="&#xe1;" horiz-adv-x="530" 
d="M454 0v339c0 116 -69.667 174 -209 174c-42 0 -76.833 -5.16699 -104.5 -15.5s-53.5 -29.5 -77.5 -57.5l67 -63c14 18 29 30.667 45 38s38 11 66 11c40 0 68.5 -7.83301 85.5 -23.5s25.5 -39.5 25.5 -71.5v-36h-134c-58.667 0 -102.5 -13.667 -131.5 -41
s-43.5 -62.333 -43.5 -105c0 -44.667 13.333 -81 40 -109c15.333 -15.333 33.833 -26.833 55.5 -34.5s48.5 -11.5 80.5 -11.5c31.333 0 57 4 77 12s39.333 21.333 58 40v-46h100zM352 183c0 -35.333 -7.33496 -60.332 -22.002 -74.999
c-13.333 -13.333 -27.666 -21.5 -42.999 -24.5s-32.666 -4.5 -51.999 -4.5c-32 0 -55.5 6.16699 -70.5 18.5s-22.5 30.166 -22.5 53.499s7.66699 41.333 23 54s38 19 68 19h119v-41zM392.998 761.001h-113l-75 -162h77z" />
    <glyph glyph-name="acircumflex" unicode="&#xe2;" horiz-adv-x="530" 
d="M454 0v339c0 116 -69.667 174 -209 174c-42 0 -76.833 -5.16699 -104.5 -15.5s-53.5 -29.5 -77.5 -57.5l67 -63c14 18 29 30.667 45 38s38 11 66 11c40 0 68.5 -7.83301 85.5 -23.5s25.5 -39.5 25.5 -71.5v-36h-134c-58.667 0 -102.5 -13.667 -131.5 -41
s-43.5 -62.333 -43.5 -105c0 -44.667 13.333 -81 40 -109c15.333 -15.333 33.833 -26.833 55.5 -34.5s48.5 -11.5 80.5 -11.5c31.333 0 57 4 77 12s39.333 21.333 58 40v-46h100zM352 183c0 -35.333 -7.33496 -60.332 -22.002 -74.999
c-13.333 -13.333 -27.666 -21.5 -42.999 -24.5s-32.666 -4.5 -51.999 -4.5c-32 0 -55.5 6.16699 -70.5 18.5s-22.5 30.166 -22.5 53.499s7.66699 41.333 23 54s38 19 68 19h119v-41zM428.998 599.001l-129 161h-86l-129 -161h85l87 97l87 -97h85z" />
    <glyph glyph-name="atilde" unicode="&#xe3;" horiz-adv-x="530" 
d="M454 0v339c0 116 -69.667 174 -209 174c-42 0 -76.833 -5.16699 -104.5 -15.5s-53.5 -29.5 -77.5 -57.5l67 -63c14 18 29 30.667 45 38s38 11 66 11c40 0 68.5 -7.83301 85.5 -23.5s25.5 -39.5 25.5 -71.5v-36h-134c-58.667 0 -102.5 -13.667 -131.5 -41
s-43.5 -62.333 -43.5 -105c0 -44.667 13.333 -81 40 -109c15.333 -15.333 33.833 -26.833 55.5 -34.5s48.5 -11.5 80.5 -11.5c31.333 0 57 4 77 12s39.333 21.333 58 40v-46h100zM352 183c0 -35.333 -7.33496 -60.332 -22.002 -74.999
c-13.333 -13.333 -27.666 -21.5 -42.999 -24.5s-32.666 -4.5 -51.999 -4.5c-32 0 -55.5 6.16699 -70.5 18.5s-22.5 30.166 -22.5 53.499s7.66699 41.333 23 54s38 19 68 19h119v-41zM425.998 667.001l-48.001 47c-13.333 -13.333 -24.5 -21.833 -33.5 -25.5
s-17.5 -5.5 -25.5 -5.5c-10 0 -19.167 1.66699 -27.5 5s-17.5 8 -27.5 14c-13.333 8 -25.5 14 -36.5 18s-23.833 6 -38.5 6c-16 0 -31.667 -3.5 -47 -10.5s-34.333 -21.833 -57 -44.5l48 -47c14 14 25 22.5 33 25.5s16.333 4.5 25 4.5c10 0 19.5 -1.83301 28.5 -5.5
s18.167 -8.16699 27.5 -13.5c13.333 -7.33301 25.5 -13 36.5 -17s23.833 -6 38.5 -6c15.333 0 30.833 3.5 46.5 10.5s34.834 21.833 57.501 44.5z" />
    <glyph glyph-name="adieresis" unicode="&#xe4;" horiz-adv-x="530" 
d="M454 0v339c0 116 -69.667 174 -209 174c-42 0 -76.833 -5.16699 -104.5 -15.5s-53.5 -29.5 -77.5 -57.5l67 -63c14 18 29 30.667 45 38s38 11 66 11c40 0 68.5 -7.83301 85.5 -23.5s25.5 -39.5 25.5 -71.5v-36h-134c-58.667 0 -102.5 -13.667 -131.5 -41
s-43.5 -62.333 -43.5 -105c0 -44.667 13.333 -81 40 -109c15.333 -15.333 33.833 -26.833 55.5 -34.5s48.5 -11.5 80.5 -11.5c31.333 0 57 4 77 12s39.333 21.333 58 40v-46h100zM352 183c0 -35.333 -7.33496 -60.332 -22.002 -74.999
c-13.333 -13.333 -27.666 -21.5 -42.999 -24.5s-32.666 -4.5 -51.999 -4.5c-32 0 -55.5 6.16699 -70.5 18.5s-22.5 30.166 -22.5 53.499s7.66699 41.333 23 54s38 19 68 19h119v-41zM410.998 604.001v108h-92v-108h92zM194.998 604.001v108h-92v-108h92z" />
    <glyph glyph-name="aring" unicode="&#xe5;" horiz-adv-x="530" 
d="M454 0v339c0 116 -69.667 174 -209 174c-42 0 -76.833 -5.16699 -104.5 -15.5s-53.5 -29.5 -77.5 -57.5l67 -63c14 18 29 30.667 45 38s38 11 66 11c40 0 68.5 -7.83301 85.5 -23.5s25.5 -39.5 25.5 -71.5v-36h-134c-58.667 0 -102.5 -13.667 -131.5 -41
s-43.5 -62.333 -43.5 -105c0 -44.667 13.333 -81 40 -109c15.333 -15.333 33.833 -26.833 55.5 -34.5s48.5 -11.5 80.5 -11.5c31.333 0 57 4 77 12s39.333 21.333 58 40v-46h100zM352 183c0 -35.333 -7.33496 -60.332 -22.002 -74.999
c-13.333 -13.333 -27.666 -21.5 -42.999 -24.5s-32.666 -4.5 -51.999 -4.5c-32 0 -55.5 6.16699 -70.5 18.5s-22.5 30.166 -22.5 53.499s7.66699 41.333 23 54s38 19 68 19h119v-41zM381.998 701.001c0 17.333 -3.33301 33.5 -10 48.5s-15.667 28.167 -27 39.5
s-24.5 20.333 -39.5 27s-31.167 10 -48.5 10s-33.5 -3.33301 -48.5 -10s-28.167 -15.667 -39.5 -27s-20.333 -24.5 -27 -39.5s-10 -31.167 -10 -48.5s3.33301 -33.5 10 -48.5s15.667 -28.167 27 -39.5s24.5 -20.333 39.5 -27s31.167 -10 48.5 -10s33.5 3.33301 48.5 10
s28.167 15.667 39.5 27s20.333 24.5 27 39.5s10 31.167 10 48.5zM320.998 701.001c0 -17.333 -6.33301 -32.166 -19 -44.499s-27.667 -18.5 -45 -18.5s-32.333 6.16699 -45 18.5s-19 27.166 -19 44.499s6.33301 32.166 19 44.499s27.667 18.5 45 18.5
s32.333 -6.16699 45 -18.5s19 -27.166 19 -44.499z" />
    <glyph glyph-name="ae" unicode="&#xe6;" horiz-adv-x="837" 
d="M782 224l0.000976562 44.999c0 36 -4.83301 69 -14.5 99s-23.667 55.667 -42 77s-40.833 38 -67.5 50s-57 18 -91 18c-63.333 0 -113.333 -22.333 -150 -67c-31.333 44.667 -88.666 67 -171.999 67c-42 0 -76.833 -5.16699 -104.5 -15.5s-53.5 -29.5 -77.5 -57.5l67 -63
c14 18 29 30.667 45 38s38 11 66 11c40 0 68.5 -7.83301 85.5 -23.5s25.5 -39.5 25.5 -71.5v-36h-134c-58.667 0 -102.5 -13.667 -131.5 -41s-43.5 -62.333 -43.5 -105c0 -21.333 3.33301 -41.5 10 -60.5s16.667 -35.167 30 -48.5c15.333 -15.333 33.833 -26.833 55.5 -34.5
s48.5 -11.5 80.5 -11.5c39.333 0 73.166 5.33301 101.499 16s55.166 31.667 80.499 63c20.667 -28 46.334 -48.167 77.001 -60.5s64.667 -18.5 102 -18.5c22 0 41.833 1.66699 59.5 5s34 8.33301 49 15s29 14.834 42 24.501s26.167 21.167 39.5 34.5l-65 61
c-18 -18 -35.833 -31.167 -53.5 -39.5s-40.834 -12.5 -69.501 -12.5c-42 0 -74 12.667 -96 38s-33 60 -33 104h329zM681.001 294.999h-228c0.666992 15.333 1.83398 27.833 3.50098 37.5s5.16699 20.167 10.5 31.5c8 19.333 20.667 34.833 38 46.5s38 17.5 62 17.5
s44.833 -5.83301 62.5 -17.5s30.5 -27.167 38.5 -46.5c5.33301 -11.333 8.66602 -21.833 9.99902 -31.5s2.33301 -22.167 3 -37.5zM352.001 182.999c0 -35.333 -7.33496 -60.332 -22.002 -74.999c-13.333 -13.333 -27.666 -21.5 -42.999 -24.5s-32.666 -4.5 -51.999 -4.5
c-32 0 -55.5 6.16699 -70.5 18.5s-22.5 30.166 -22.5 53.499s7.66699 41.333 23 54s38 19 68 19h119v-41z" />
    <glyph glyph-name="ccedilla" unicode="&#xe7;" horiz-adv-x="488" 
d="M448 66l-70 66.998c-16 -17.333 -31.167 -29.666 -45.5 -36.999s-31.5 -11 -51.5 -11c-40 0 -71.333 15 -94 45c-11.333 14 -19.166 30.667 -23.499 50s-6.5 44 -6.5 74s2.16699 54.5 6.5 73.5s12.166 35.5 23.499 49.5c22.667 30 54 45 94 45
c20 0 37.167 -3.66699 51.5 -11s29.5 -19.666 45.5 -36.999l70 68c-24 25.333 -49 43.5 -75 54.5s-56.667 16.5 -92 16.5c-28.667 0 -56.5 -4.66699 -83.5 -14s-51 -24.166 -72 -44.499s-38 -47 -51 -80s-19.5 -73.167 -19.5 -120.5s6.5 -87.5 19.5 -120.5
s30 -59.833 51 -80.5s45 -35.667 72 -45s54.833 -14 83.5 -14c35.333 0 66 5.66699 92 17s51 29.666 75 54.999zM319 -64.002h-82l-70 -147h101z" />
    <glyph glyph-name="egrave" unicode="&#xe8;" horiz-adv-x="539" 
d="M485 224l0.000976562 44.998c0 36 -4.83301 69 -14.5 99s-23.667 55.667 -42 77s-40.833 38 -67.5 50s-57 18 -91 18c-65.333 0 -117.5 -22.5 -156.5 -67.5s-58.5 -108.833 -58.5 -191.5c0 -48 6 -88.667 18 -122s28.167 -60.166 48.5 -80.499s44.333 -35 72 -44
s57.5 -13.5 89.5 -13.5c22 0 41.833 1.66699 59.5 5s34 8.33301 49 15s29 14.834 42 24.501s26.167 21.167 39.5 34.5l-65 61c-18 -18 -35.833 -31.167 -53.5 -39.5s-40.834 -12.5 -69.501 -12.5c-42 0 -74 12.667 -96 38s-33 60 -33 104h329zM384.001 294.998h-228
c0.666992 15.333 1.66699 27.833 3 37.5s4.66602 20.167 9.99902 31.5c8 19.333 20.833 34.833 38.5 46.5s38.5 17.5 62.5 17.5s44.667 -5.83301 62 -17.5s30 -27.167 38 -46.5c5.33301 -11.333 8.83301 -21.833 10.5 -31.5s2.83398 -22.167 3.50098 -37.5zM325.001 598.998
l-75 162h-113l111 -162h77z" />
    <glyph glyph-name="eacute" unicode="&#xe9;" horiz-adv-x="539" 
d="M485 224l0.000976562 44.998c0 36 -4.83301 69 -14.5 99s-23.667 55.667 -42 77s-40.833 38 -67.5 50s-57 18 -91 18c-65.333 0 -117.5 -22.5 -156.5 -67.5s-58.5 -108.833 -58.5 -191.5c0 -48 6 -88.667 18 -122s28.167 -60.166 48.5 -80.499s44.333 -35 72 -44
s57.5 -13.5 89.5 -13.5c22 0 41.833 1.66699 59.5 5s34 8.33301 49 15s29 14.834 42 24.501s26.167 21.167 39.5 34.5l-65 61c-18 -18 -35.833 -31.167 -53.5 -39.5s-40.834 -12.5 -69.501 -12.5c-42 0 -74 12.667 -96 38s-33 60 -33 104h329zM384.001 294.998h-228
c0.666992 15.333 1.66699 27.833 3 37.5s4.66602 20.167 9.99902 31.5c8 19.333 20.833 34.833 38.5 46.5s38.5 17.5 62.5 17.5s44.667 -5.83301 62 -17.5s30 -27.167 38 -46.5c5.33301 -11.333 8.83301 -21.833 10.5 -31.5s2.83398 -22.167 3.50098 -37.5zM409.001 760.998
h-113l-75 -162h77z" />
    <glyph glyph-name="ecircumflex" unicode="&#xea;" horiz-adv-x="539" 
d="M485 224l0.000976562 44.998c0 36 -4.83301 69 -14.5 99s-23.667 55.667 -42 77s-40.833 38 -67.5 50s-57 18 -91 18c-65.333 0 -117.5 -22.5 -156.5 -67.5s-58.5 -108.833 -58.5 -191.5c0 -48 6 -88.667 18 -122s28.167 -60.166 48.5 -80.499s44.333 -35 72 -44
s57.5 -13.5 89.5 -13.5c22 0 41.833 1.66699 59.5 5s34 8.33301 49 15s29 14.834 42 24.501s26.167 21.167 39.5 34.5l-65 61c-18 -18 -35.833 -31.167 -53.5 -39.5s-40.834 -12.5 -69.501 -12.5c-42 0 -74 12.667 -96 38s-33 60 -33 104h329zM384.001 294.998h-228
c0.666992 15.333 1.66699 27.833 3 37.5s4.66602 20.167 9.99902 31.5c8 19.333 20.833 34.833 38.5 46.5s38.5 17.5 62.5 17.5s44.667 -5.83301 62 -17.5s30 -27.167 38 -46.5c5.33301 -11.333 8.83301 -21.833 10.5 -31.5s2.83398 -22.167 3.50098 -37.5zM445.001 598.998
l-129 161h-86l-129 -161h85l87 97l87 -97h85z" />
    <glyph glyph-name="edieresis" unicode="&#xeb;" horiz-adv-x="539" 
d="M485 224l0.000976562 44.998c0 36 -4.83301 69 -14.5 99s-23.667 55.667 -42 77s-40.833 38 -67.5 50s-57 18 -91 18c-65.333 0 -117.5 -22.5 -156.5 -67.5s-58.5 -108.833 -58.5 -191.5c0 -48 6 -88.667 18 -122s28.167 -60.166 48.5 -80.499s44.333 -35 72 -44
s57.5 -13.5 89.5 -13.5c22 0 41.833 1.66699 59.5 5s34 8.33301 49 15s29 14.834 42 24.501s26.167 21.167 39.5 34.5l-65 61c-18 -18 -35.833 -31.167 -53.5 -39.5s-40.834 -12.5 -69.501 -12.5c-42 0 -74 12.667 -96 38s-33 60 -33 104h329zM384.001 294.998h-228
c0.666992 15.333 1.66699 27.833 3 37.5s4.66602 20.167 9.99902 31.5c8 19.333 20.833 34.833 38.5 46.5s38.5 17.5 62.5 17.5s44.667 -5.83301 62 -17.5s30 -27.167 38 -46.5c5.33301 -11.333 8.83301 -21.833 10.5 -31.5s2.83398 -22.167 3.50098 -37.5zM427.001 603.998
v108h-92v-108h92zM211.001 603.998v108h-92v-108h92z" />
    <glyph glyph-name="igrave" unicode="&#xec;" horiz-adv-x="264" 
d="M183 0v507h-102v-507h102zM270 599l-75 162h-113l111 -162h77z" />
    <glyph glyph-name="iacute" unicode="&#xed;" horiz-adv-x="264" 
d="M183 0v507h-102v-507h102zM270 761h-113l-75 -162h77z" />
    <glyph glyph-name="icircumflex" unicode="&#xee;" horiz-adv-x="264" 
d="M183 0v507h-102v-507h102zM425 599l-129 161h-86l-129 -161h85l87 97l87 -97h85z" />
    <glyph glyph-name="idieresis" unicode="&#xef;" horiz-adv-x="264" 
d="M183 0v507h-102v-507h102zM390 604v108h-92v-108h92zM174 604v108h-92v-108h92z" />
    <glyph glyph-name="eth" unicode="&#xf0;" horiz-adv-x="537" 
d="M476 249c0 23.333 -0.832031 44.1699 -2.49902 62.5029s-4.83398 36.166 -9.50098 53.499s-11.167 35.166 -19.5 53.499s-18.833 39.166 -31.5 62.499l-51 94h50v72h-87l-39 70h-108l39 -70h-78v-72h116l45 -81c-12 3.33301 -24.667 5 -38 5s-26 -1 -38 -3
c-43.333 -7.33301 -78 -24.333 -104 -51c-24 -24.667 -39.833 -53 -47.5 -85s-11.5 -69 -11.5 -111s3.83301 -79 11.5 -111s23.5 -60.333 47.5 -85c16 -17.333 36.167 -31.5 60.5 -42.5s53.5 -16.5 87.5 -16.5s63.333 5.5 88 16.5s45 25.167 61 42.5
c24 24.667 39.833 53 47.5 85s11.5 69 11.5 111zM374.001 249.004c0 -26.667 -1.66699 -52 -5 -76s-12.666 -43.667 -27.999 -59c-9.33301 -9.33301 -20.166 -16.5 -32.499 -21.5s-25.833 -7.5 -40.5 -7.5c-28.667 0 -52.667 9.66699 -72 29
c-15.333 15.333 -24.666 35 -27.999 59s-5 49.333 -5 76s1.66699 52 5 76s12.666 43.667 27.999 59c19.333 19.333 43.333 29 72 29c14.667 0 28.167 -2.5 40.5 -7.5s23.166 -12.167 32.499 -21.5c15.333 -15.333 24.666 -35 27.999 -59s5 -49.333 5 -76z" />
    <glyph glyph-name="ntilde" unicode="&#xf1;" horiz-adv-x="568" 
d="M492 0l-0.00292969 323.998c0 28.667 -3.66699 54.834 -11 78.501s-20.666 45.167 -39.999 64.5c-15.333 14.667 -33.5 26 -54.5 34s-44.5 12 -70.5 12c-25.333 0 -49.833 -4.66699 -73.5 -14s-44.167 -23.666 -61.5 -42.999v51h-100v-507h102v309
c0 38.667 10.333 67.167 31 85.5s45.334 27.5 74.001 27.5s52.834 -9 72.501 -27s29.5 -46.667 29.5 -86v-309h102zM455.997 666.998l-48.001 47c-13.333 -13.333 -24.5 -21.833 -33.5 -25.5s-17.5 -5.5 -25.5 -5.5c-10 0 -19.167 1.66699 -27.5 5s-17.5 8 -27.5 14
c-13.333 8 -25.5 14 -36.5 18s-23.833 6 -38.5 6c-16 0 -31.667 -3.5 -47 -10.5s-34.333 -21.833 -57 -44.5l48 -47c14 14 25 22.5 33 25.5s16.333 4.5 25 4.5c10 0 19.5 -1.83301 28.5 -5.5s18.167 -8.16699 27.5 -13.5c13.333 -7.33301 25.5 -13 36.5 -17
s23.833 -6 38.5 -6c15.333 0 30.833 3.5 46.5 10.5s34.834 21.833 57.501 44.5z" />
    <glyph glyph-name="ograve" unicode="&#xf2;" horiz-adv-x="537" 
d="M480 254c0 42.667 -4 80.167 -12 112.5s-24 61.166 -48 86.499c-16.667 17.333 -37.5 31.666 -62.5 42.999s-54.833 17 -89.5 17s-64.334 -5.66699 -89.001 -17s-45.334 -25.666 -62.001 -42.999c-24 -25.333 -40 -54.166 -48 -86.499s-12 -69.833 -12 -112.5
c0 -43.333 4 -81.166 12 -113.499s24 -61.166 48 -86.499c16.667 -17.333 37.334 -31.666 62.001 -42.999s54.334 -17 89.001 -17s64.5 5.66699 89.5 17s45.833 25.666 62.5 42.999c24 25.333 40 54.166 48 86.499s12 70.166 12 113.499zM378 254c0 -28 -2 -54.333 -6 -79
s-13.667 -44.667 -29 -60c-20 -20 -45 -30 -75 -30c-29.333 0 -54 10 -74 30c-15.333 15.333 -25 35.333 -29 60s-6 51 -6 79s2 54.333 6 79s13.667 44.667 29 60c19.333 19.333 44 29 74 29c30.667 0 55.667 -9.66699 75 -29c15.333 -15.333 25 -35.333 29 -60s6 -51 6 -79
zM313 599l-75 162h-113l111 -162h77z" />
    <glyph glyph-name="oacute" unicode="&#xf3;" horiz-adv-x="537" 
d="M480 254c0 42.667 -4 80.167 -12 112.5s-24 61.166 -48 86.499c-16.667 17.333 -37.5 31.666 -62.5 42.999s-54.833 17 -89.5 17s-64.334 -5.66699 -89.001 -17s-45.334 -25.666 -62.001 -42.999c-24 -25.333 -40 -54.166 -48 -86.499s-12 -69.833 -12 -112.5
c0 -43.333 4 -81.166 12 -113.499s24 -61.166 48 -86.499c16.667 -17.333 37.334 -31.666 62.001 -42.999s54.334 -17 89.001 -17s64.5 5.66699 89.5 17s45.833 25.666 62.5 42.999c24 25.333 40 54.166 48 86.499s12 70.166 12 113.499zM378 254c0 -28 -2 -54.333 -6 -79
s-13.667 -44.667 -29 -60c-20 -20 -45 -30 -75 -30c-29.333 0 -54 10 -74 30c-15.333 15.333 -25 35.333 -29 60s-6 51 -6 79s2 54.333 6 79s13.667 44.667 29 60c19.333 19.333 44 29 74 29c30.667 0 55.667 -9.66699 75 -29c15.333 -15.333 25 -35.333 29 -60s6 -51 6 -79
zM404 761h-113l-75 -162h77z" />
    <glyph glyph-name="ocircumflex" unicode="&#xf4;" horiz-adv-x="537" 
d="M480 254c0 42.667 -4 80.167 -12 112.5s-24 61.166 -48 86.499c-16.667 17.333 -37.5 31.666 -62.5 42.999s-54.833 17 -89.5 17s-64.334 -5.66699 -89.001 -17s-45.334 -25.666 -62.001 -42.999c-24 -25.333 -40 -54.166 -48 -86.499s-12 -69.833 -12 -112.5
c0 -43.333 4 -81.166 12 -113.499s24 -61.166 48 -86.499c16.667 -17.333 37.334 -31.666 62.001 -42.999s54.334 -17 89.001 -17s64.5 5.66699 89.5 17s45.833 25.666 62.5 42.999c24 25.333 40 54.166 48 86.499s12 70.166 12 113.499zM378 254c0 -28 -2 -54.333 -6 -79
s-13.667 -44.667 -29 -60c-20 -20 -45 -30 -75 -30c-29.333 0 -54 10 -74 30c-15.333 15.333 -25 35.333 -29 60s-6 51 -6 79s2 54.333 6 79s13.667 44.667 29 60c19.333 19.333 44 29 74 29c30.667 0 55.667 -9.66699 75 -29c15.333 -15.333 25 -35.333 29 -60s6 -51 6 -79
zM440 599l-129 161h-86l-129 -161h85l87 97l87 -97h85z" />
    <glyph glyph-name="otilde" unicode="&#xf5;" horiz-adv-x="537" 
d="M480 254c0 42.667 -4 80.167 -12 112.5s-24 61.166 -48 86.499c-16.667 17.333 -37.5 31.666 -62.5 42.999s-54.833 17 -89.5 17s-64.334 -5.66699 -89.001 -17s-45.334 -25.666 -62.001 -42.999c-24 -25.333 -40 -54.166 -48 -86.499s-12 -69.833 -12 -112.5
c0 -43.333 4 -81.166 12 -113.499s24 -61.166 48 -86.499c16.667 -17.333 37.334 -31.666 62.001 -42.999s54.334 -17 89.001 -17s64.5 5.66699 89.5 17s45.833 25.666 62.5 42.999c24 25.333 40 54.166 48 86.499s12 70.166 12 113.499zM378 254c0 -28 -2 -54.333 -6 -79
s-13.667 -44.667 -29 -60c-20 -20 -45 -30 -75 -30c-29.333 0 -54 10 -74 30c-15.333 15.333 -25 35.333 -29 60s-6 51 -6 79s2 54.333 6 79s13.667 44.667 29 60c19.333 19.333 44 29 74 29c30.667 0 55.667 -9.66699 75 -29c15.333 -15.333 25 -35.333 29 -60s6 -51 6 -79
zM437 667l-48.001 47c-13.333 -13.333 -24.5 -21.833 -33.5 -25.5s-17.5 -5.5 -25.5 -5.5c-10 0 -19.167 1.66699 -27.5 5s-17.5 8 -27.5 14c-13.333 8 -25.5 14 -36.5 18s-23.833 6 -38.5 6c-16 0 -31.667 -3.5 -47 -10.5s-34.333 -21.833 -57 -44.5l48 -47
c14 14 25 22.5 33 25.5s16.333 4.5 25 4.5c10 0 19.5 -1.83301 28.5 -5.5s18.167 -8.16699 27.5 -13.5c13.333 -7.33301 25.5 -13 36.5 -17s23.833 -6 38.5 -6c15.333 0 30.833 3.5 46.5 10.5s34.834 21.833 57.501 44.5z" />
    <glyph glyph-name="odieresis" unicode="&#xf6;" horiz-adv-x="537" 
d="M480 254c0 42.667 -4 80.167 -12 112.5s-24 61.166 -48 86.499c-16.667 17.333 -37.5 31.666 -62.5 42.999s-54.833 17 -89.5 17s-64.334 -5.66699 -89.001 -17s-45.334 -25.666 -62.001 -42.999c-24 -25.333 -40 -54.166 -48 -86.499s-12 -69.833 -12 -112.5
c0 -43.333 4 -81.166 12 -113.499s24 -61.166 48 -86.499c16.667 -17.333 37.334 -31.666 62.001 -42.999s54.334 -17 89.001 -17s64.5 5.66699 89.5 17s45.833 25.666 62.5 42.999c24 25.333 40 54.166 48 86.499s12 70.166 12 113.499zM378 254c0 -28 -2 -54.333 -6 -79
s-13.667 -44.667 -29 -60c-20 -20 -45 -30 -75 -30c-29.333 0 -54 10 -74 30c-15.333 15.333 -25 35.333 -29 60s-6 51 -6 79s2 54.333 6 79s13.667 44.667 29 60c19.333 19.333 44 29 74 29c30.667 0 55.667 -9.66699 75 -29c15.333 -15.333 25 -35.333 29 -60s6 -51 6 -79
zM422 604v108h-92v-108h92zM206 604v108h-92v-108h92z" />
    <glyph glyph-name="divide" unicode="&#xf7;" 
d="M321 414v109h-109v-109h109zM484 230v95h-436v-95h436zM321 33v109h-109v-109h109z" />
    <glyph glyph-name="oslash" unicode="&#xf8;" horiz-adv-x="537" 
d="M480 254c0 42.667 -3.99902 80.168 -11.999 112.501s-24 61.166 -48 86.499l59 98h-69l-37 -63c-14 7.33301 -29.667 13.333 -47 18s-36.666 7 -57.999 7c-34.667 0 -64.334 -5.66699 -89.001 -17s-45.334 -25.666 -62.001 -42.999c-24 -25.333 -40 -54.166 -48 -86.499
s-12 -69.833 -12 -112.5s3.83301 -80.167 11.5 -112.5s23.5 -61.166 47.5 -86.499l-58 -99h69l37 63c14 -7.33301 29.5 -13.333 46.5 -18s36.167 -7 57.5 -7c34.667 0 64.5 5.66699 89.5 17s45.833 25.666 62.5 42.999c24 25.333 40 54.166 48 86.499s12 70.166 12 113.499z
M328.001 405.001l-153.999 -260c-6.66699 15.333 -10.834 32.333 -12.501 51s-2.5 38 -2.5 58c0 28 2 54.333 6 79s13.667 44.667 29 60c19.333 19.333 44 29 74 29c22.667 0 42.667 -5.66699 60 -17zM378.002 254.001c0 -28 -2.00098 -54.333 -6.00098 -79
s-13.667 -44.667 -29 -60c-20 -20 -45 -30 -75 -30c-22 0 -41.667 6 -59 18l154 260c6.66699 -15.333 10.834 -32.333 12.501 -51s2.5 -38 2.5 -58z" />
    <glyph glyph-name="ugrave" unicode="&#xf9;" horiz-adv-x="568" 
d="M487 0l0.00195312 506.999h-102v-309c0 -19.333 -2.83301 -36.166 -8.5 -50.499s-13.167 -26.166 -22.5 -35.499s-20.5 -16.166 -33.5 -20.499s-26.5 -6.5 -40.5 -6.5c-28.667 0 -52.834 9 -72.501 27s-29.5 46.667 -29.5 86v309h-102v-324
c0 -28.667 3.66699 -54.834 11 -78.501s20.666 -45.167 39.999 -64.5c15.333 -14.667 33.5 -26 54.5 -34s44.5 -12 70.5 -12c25.333 0 49.833 4.66699 73.5 14s44.167 23.666 61.5 42.999v-51h100zM333.002 598.999l-75 162h-113l111 -162h77z" />
    <glyph glyph-name="uacute" unicode="&#xfa;" horiz-adv-x="568" 
d="M487 0l0.00195312 506.999h-102v-309c0 -19.333 -2.83301 -36.166 -8.5 -50.499s-13.167 -26.166 -22.5 -35.499s-20.5 -16.166 -33.5 -20.499s-26.5 -6.5 -40.5 -6.5c-28.667 0 -52.834 9 -72.501 27s-29.5 46.667 -29.5 86v309h-102v-324
c0 -28.667 3.66699 -54.834 11 -78.501s20.666 -45.167 39.999 -64.5c15.333 -14.667 33.5 -26 54.5 -34s44.5 -12 70.5 -12c25.333 0 49.833 4.66699 73.5 14s44.167 23.666 61.5 42.999v-51h100zM417.002 760.999h-113l-75 -162h77z" />
    <glyph glyph-name="ucircumflex" unicode="&#xfb;" horiz-adv-x="568" 
d="M487 0l0.00195312 506.999h-102v-309c0 -19.333 -2.83301 -36.166 -8.5 -50.499s-13.167 -26.166 -22.5 -35.499s-20.5 -16.166 -33.5 -20.499s-26.5 -6.5 -40.5 -6.5c-28.667 0 -52.834 9 -72.501 27s-29.5 46.667 -29.5 86v309h-102v-324
c0 -28.667 3.66699 -54.834 11 -78.501s20.666 -45.167 39.999 -64.5c15.333 -14.667 33.5 -26 54.5 -34s44.5 -12 70.5 -12c25.333 0 49.833 4.66699 73.5 14s44.167 23.666 61.5 42.999v-51h100zM453.002 598.999l-129 161h-86l-129 -161h85l87 97l87 -97h85z" />
    <glyph glyph-name="udieresis" unicode="&#xfc;" horiz-adv-x="568" 
d="M487 0l0.00195312 506.999h-102v-309c0 -19.333 -2.83301 -36.166 -8.5 -50.499s-13.167 -26.166 -22.5 -35.499s-20.5 -16.166 -33.5 -20.499s-26.5 -6.5 -40.5 -6.5c-28.667 0 -52.834 9 -72.501 27s-29.5 46.667 -29.5 86v309h-102v-324
c0 -28.667 3.66699 -54.834 11 -78.501s20.666 -45.167 39.999 -64.5c15.333 -14.667 33.5 -26 54.5 -34s44.5 -12 70.5 -12c25.333 0 49.833 4.66699 73.5 14s44.167 23.666 61.5 42.999v-51h100zM435.002 603.999v108h-92v-108h92zM219.002 603.999v108h-92v-108h92z" />
    <glyph glyph-name="yacute" unicode="&#xfd;" horiz-adv-x="468" 
d="M464 507l-108.999 0.000976562l-118 -357l-121 357h-108l177 -483l-28 -79c-7.33301 -20.667 -16 -34.834 -26 -42.501s-25.667 -11.5 -47 -11.5h-26v-92h41c19.333 0 38 2.66699 56 8s34 15 48 29c15.333 15.333 27.666 36.333 36.999 63zM371.001 761.001h-113
l-75 -162h77z" />
    <glyph glyph-name="thorn" unicode="&#xfe;" horiz-adv-x="554" 
d="M496 254c0 19.333 -0.5 38.9971 -1.5 58.9971s-3.5 39.333 -7.5 58s-9.83301 36.334 -17.5 53.001s-17.834 31.334 -30.501 44.001c-14 14 -31.667 25 -53 33s-44.666 12 -69.999 12c-27.333 0 -51.666 -4 -72.999 -12s-41.333 -23 -60 -45v256h-102v-917h102v257
c18.667 -22 38.667 -37.167 60 -45.5s45.666 -12.5 72.999 -12.5c25.333 0 48.666 4 69.999 12s39 19 53 33c12.667 12.667 22.834 27.334 30.501 44.001s13.5 34.5 17.5 53.5s6.5 38.5 7.5 58.5s1.5 39.667 1.5 59zM394 253.997c0 -22.667 -1.16699 -44.167 -3.5 -64.5
s-7.16602 -38.333 -14.499 -54s-18 -28 -32 -37s-32.333 -13.5 -55 -13.5c-23.333 0 -41.833 4.5 -55.5 13.5s-24.334 21.333 -32.001 37s-12.667 33.667 -15 54s-3.5 41.833 -3.5 64.5s1.16699 44.167 3.5 64.5s7.33301 38.166 15 53.499s18.334 27.5 32.001 36.5
s32.167 13.5 55.5 13.5c22.667 0 41 -4.5 55 -13.5s24.667 -21.167 32 -36.5s12.166 -33.166 14.499 -53.499s3.5 -41.833 3.5 -64.5z" />
    <glyph glyph-name="ydieresis" unicode="&#xff;" horiz-adv-x="468" 
d="M464 507l-108.999 0.000976562l-118 -357l-121 357h-108l177 -483l-28 -79c-7.33301 -20.667 -16 -34.834 -26 -42.501s-25.667 -11.5 -47 -11.5h-26v-92h41c19.333 0 38 2.66699 56 8s34 15 48 29c15.333 15.333 27.666 36.333 36.999 63zM389.001 604.001v108h-92v-108
h92zM173.001 604.001v108h-92v-108h92z" />
    <glyph glyph-name="dotlessi" unicode="&#x131;" horiz-adv-x="264" 
d="M183 0v507h-102v-507h102z" />
    <glyph glyph-name="Lslash" unicode="&#x141;" horiz-adv-x="587" 
d="M557 0v97h-342v238l141 89v91l-141 -89v286h-108v-354l-69 -43v-93l69 44v-266h450z" />
    <glyph glyph-name="lslash" unicode="&#x142;" horiz-adv-x="326" 
d="M294 0l0.000976562 87.001h-45c-20.667 0 -35 5 -43 15s-12 24.667 -12 44v237l70 44v86l-70 -43v242h-102v-304l-59 -36v-87l59 36v-181c0 -18.667 2.66699 -36.5 8 -53.5s13.666 -31.833 24.999 -44.5s25.833 -22.834 43.5 -30.501s38.5 -11.5 62.5 -11.5h63z" />
    <glyph glyph-name="OE" unicode="&#x152;" horiz-adv-x="977" 
d="M922 0v95.998h-343v216h291v94h-291v210h342v96h-450v-58c-19.333 22.667 -42 39 -68 49s-53.333 15 -82 15c-38 0 -72.167 -6.16699 -102.5 -18.5s-57.833 -30.833 -82.5 -55.5c-17.333 -17.333 -30.666 -35.666 -39.999 -54.999s-16.166 -40.5 -20.499 -63.5
s-6.83301 -48.5 -7.5 -76.5s-1 -59 -1 -93s0.333008 -65 1 -93s3.16699 -53.5 7.5 -76.5s11.166 -44.167 20.499 -63.5s22.666 -37.666 39.999 -54.999c24.667 -24.667 52.167 -43.167 82.5 -55.5s64.5 -18.5 102.5 -18.5c26.667 0 53.5 5 80.5 15s50.167 26.333 69.5 49
v-58h451zM471 355.998c0 -36 -0.5 -65.833 -1.5 -89.5s-3 -43.667 -6 -60s-7.33301 -30 -13 -41s-12.834 -21.167 -21.501 -30.5c-12.667 -13.333 -28.167 -24 -46.5 -32s-38.166 -12 -59.499 -12s-41 4 -59 12s-33.333 18.667 -46 32
c-8.66699 9.33301 -15.834 19.5 -21.501 30.5s-10 24.667 -13 41s-5 36.333 -6 60s-1.5 53.5 -1.5 89.5s0.5 65.833 1.5 89.5s3 43.667 6 60s7.33301 30 13 41s12.834 21.167 21.501 30.5c12.667 13.333 28 24 46 32s37.667 12 59 12s41.166 -4 59.499 -12
s33.833 -18.667 46.5 -32c8.66699 -9.33301 15.834 -19.5 21.501 -30.5s10 -24.667 13 -41s5 -36.333 6 -60s1.5 -53.5 1.5 -89.5z" />
    <glyph glyph-name="oe" unicode="&#x153;" horiz-adv-x="862" 
d="M807 224v44.9951c0 36 -4.83301 69 -14.5 99s-23.667 55.667 -42 77s-40.833 38 -67.5 50s-57 18 -91 18c-71.333 0 -124.666 -27 -159.999 -81c-16 25.333 -38 45.166 -66 59.499s-60.667 21.5 -98 21.5c-34.667 0 -64.334 -5.66699 -89.001 -17
s-45.334 -25.666 -62.001 -42.999c-24 -25.333 -40 -54.166 -48 -86.499s-12 -69.833 -12 -112.5c0 -43.333 4 -81.166 12 -113.499s24 -61.166 48 -86.499c16.667 -17.333 37.334 -31.666 62.001 -42.999s54.334 -17 89.001 -17c36.667 0 69 7.16699 97 21.5
s50 33.833 66 58.5c19.333 -28 44 -48.333 74 -61s63.667 -19 101 -19c22 0 41.833 1.66699 59.5 5s34 8.33301 49 15s28.833 14.834 41.5 24.501s25.667 21.167 39 34.5l-65 61c-18 -18 -35.833 -31.167 -53.5 -39.5s-40.834 -12.5 -69.501 -12.5c-42 0 -74 12.667 -96 38
s-33 60 -33 104h329zM706 294.995h-228c0.666992 15.333 1.83398 27.833 3.50098 37.5s5.16699 20.167 10.5 31.5c8 19.333 20.667 34.833 38 46.5s38 17.5 62 17.5s44.833 -5.83301 62.5 -17.5s30.5 -27.167 38.5 -46.5c5.33301 -11.333 8.66602 -21.833 9.99902 -31.5
s2.33301 -22.167 3 -37.5zM378 253.995c0 -28 -2 -54.333 -6 -79s-13.667 -44.667 -29 -60c-20 -20 -45 -30 -75 -30c-29.333 0 -54 10 -74 30c-15.333 15.333 -25 35.333 -29 60s-6 51 -6 79s2 54.333 6 79s13.667 44.667 29 60c19.333 19.333 44 29 74 29
c30.667 0 55.667 -9.66699 75 -29c15.333 -15.333 25 -35.333 29 -60s6 -51 6 -79z" />
    <glyph glyph-name="Scaron" unicode="&#x160;" horiz-adv-x="590" 
d="M538 203c0 30.667 -4.83301 58.3369 -14.5 83.0039s-24.167 45.667 -43.5 63c-15.333 13.333 -33 24.166 -53 32.499s-46.667 15.166 -80 20.499l-81 12c-34.667 5.33301 -61.334 16.333 -80.001 33c-9.33301 8.66699 -16.166 18.5 -20.499 29.5s-6.5 23.167 -6.5 36.5
c0 32 11.167 58.5 33.5 79.5s54.5 31.5 96.5 31.5c30 0 57.833 -3.83301 83.5 -11.5s49.5 -22.167 71.5 -43.5l69 68c-30.667 28.667 -63.334 49.334 -98.001 62.001s-75.667 19 -123 19c-37.333 0 -70.666 -5 -99.999 -15s-54.166 -24.333 -74.499 -43
s-36 -40.834 -47 -66.501s-16.5 -53.834 -16.5 -84.501c0 -58 17.333 -103.333 52 -136c32 -30 77 -49 135 -57l84 -12c21.333 -3.33301 37.333 -7 48 -11s20.667 -10.333 30 -19c18.667 -16.667 28 -41.334 28 -74.001c0 -34.667 -12.833 -61.5 -38.5 -80.5
s-61.834 -28.5 -108.501 -28.5c-36.667 0 -69.667 4.83301 -99 14.5s-57 27.5 -83 53.5l-72 -71c34 -34.667 71 -59 111 -73s87 -21 141 -21c37.333 0 71.666 4.66699 102.999 14s58.333 23 81 41s40.334 40 53.001 66s19 55.333 19 88zM464 942.003h-85l-87 -97l-87 97h-85
l129 -161h86z" />
    <glyph glyph-name="scaron" unicode="&#x161;" horiz-adv-x="499" 
d="M456 155c0 45.333 -13.167 79.498 -39.5 102.498s-63.5 36.5 -111.5 40.5l-80 7c-27.333 2.66699 -45.833 9.16699 -55.5 19.5s-14.5 23.166 -14.5 38.499c0 19.333 7.66699 35 23 47s38.333 18 69 18c24 0 46.833 -2.83301 68.5 -8.5s40.5 -15.167 56.5 -28.5l64 65
c-23.333 20.667 -51 35.334 -83 44.001s-67 13 -105 13c-26.667 0 -51.5 -3.5 -74.5 -10.5s-43.167 -17 -60.5 -30s-31 -29.167 -41 -48.5s-15 -41.333 -15 -66c0 -44.667 13 -78.167 39 -100.5s63 -35.5 111 -39.5l81 -7c24.667 -2 42.167 -8.16699 52.5 -18.5
s15.5 -24.166 15.5 -41.499c0 -24 -10.667 -41.667 -32 -53s-47.666 -17 -78.999 -17c-25.333 0 -50.833 3.5 -76.5 10.5s-48.834 21.167 -69.501 42.5l-67 -67c30 -29.333 62.667 -48.833 98 -58.5s73.666 -14.5 114.999 -14.5c30 0 58 3.33301 84 10
s48.333 16.834 67 30.501s33.334 30.5 44.001 50.5s16 43.333 16 70zM421 759.998h-85l-87 -97l-87 97h-85l129 -161h86z" />
    <glyph glyph-name="Ydieresis" unicode="&#x178;" horiz-adv-x="544" 
d="M539 712h-118l-149 -313l-149 313h-118l213 -419v-293h108v293zM426 786v108h-92v-108h92zM210 786v108h-92v-108h92z" />
    <glyph glyph-name="Zcaron" unicode="&#x17d;" horiz-adv-x="552" 
d="M504 0v97h-331l331 527v88h-442v-97h315l-329 -522v-93h456zM453 942h-85l-87 -97l-87 97h-85l129 -161h86z" />
    <glyph glyph-name="zcaron" unicode="&#x17e;" horiz-adv-x="469" 
d="M421 0v91h-254l254 335v81h-364v-91h238l-252 -335v-81h378zM412 760h-85l-87 -97l-87 97h-85l129 -161h86z" />
    <glyph glyph-name="florin" unicode="&#x192;" horiz-adv-x="415" 
d="M385 630v87h-63c-24 0 -45.333 -4 -64 -12s-34.834 -18.5 -48.501 -31.5s-24.667 -28 -33 -45s-14.166 -34.5 -17.499 -52.5l-33 -185h-96v-78h82l-91 -518h102l91 518h115v78h-101l32 180c3.33301 18.667 10.333 33.167 21 43.5s25.667 15.5 45 15.5h59z" />
    <glyph glyph-name="circumflex" unicode="&#x2c6;" horiz-adv-x="500" 
d="M422 599l-129 161h-86l-129 -161h85l87 97l87 -97h85z" />
    <glyph glyph-name="caron" unicode="&#x2c7;" horiz-adv-x="500" 
d="M422 760h-85l-87 -97l-87 97h-85l129 -161h86z" />
    <glyph glyph-name="breve" unicode="&#x2d8;" horiz-adv-x="500" 
d="M415 735h-71.9961c-3.33301 -23.333 -13.333 -41 -30 -53s-37.334 -18 -62.001 -18s-45.334 6 -62.001 18s-26.667 29.667 -30 53h-74c3.33301 -50 20 -86.667 50 -110s68.667 -35 116 -35s85.666 11.667 114.999 35s45.666 60 48.999 110z" />
    <glyph glyph-name="dotaccent" unicode="&#x2d9;" horiz-adv-x="500" 
d="M304 620v91h-108v-91h108z" />
    <glyph glyph-name="ring" unicode="&#x2da;" horiz-adv-x="500" 
d="M375 701c0 17.333 -3.33301 33.5 -10 48.5s-15.667 28.167 -27 39.5s-24.5 20.333 -39.5 27s-31.167 10 -48.5 10s-33.5 -3.33301 -48.5 -10s-28.167 -15.667 -39.5 -27s-20.333 -24.5 -27 -39.5s-10 -31.167 -10 -48.5s3.33301 -33.5 10 -48.5s15.667 -28.167 27 -39.5
s24.5 -20.333 39.5 -27s31.167 -10 48.5 -10s33.5 3.33301 48.5 10s28.167 15.667 39.5 27s20.333 24.5 27 39.5s10 31.167 10 48.5zM314 701c0 -17.333 -6.33301 -32.166 -19 -44.499s-27.667 -18.5 -45 -18.5s-32.333 6.16699 -45 18.5s-19 27.166 -19 44.499
s6.33301 32.166 19 44.499s27.667 18.5 45 18.5s32.333 -6.16699 45 -18.5s19 -27.166 19 -44.499z" />
    <glyph glyph-name="ogonek" unicode="&#x2db;" horiz-adv-x="500" 
d="M329 -211l-70 147h-82l51 -147h101z" />
    <glyph glyph-name="tilde" unicode="&#x2dc;" horiz-adv-x="500" 
d="M419 667l-48.001 47c-13.333 -13.333 -24.5 -21.833 -33.5 -25.5s-17.5 -5.5 -25.5 -5.5c-10 0 -19.167 1.66699 -27.5 5s-17.5 8 -27.5 14c-13.333 8 -25.5 14 -36.5 18s-23.833 6 -38.5 6c-16 0 -31.667 -3.5 -47 -10.5s-34.333 -21.833 -57 -44.5l48 -47
c14 14 25 22.5 33 25.5s16.333 4.5 25 4.5c10 0 19.5 -1.83301 28.5 -5.5s18.167 -8.16699 27.5 -13.5c13.333 -7.33301 25.5 -13 36.5 -17s23.833 -6 38.5 -6c15.333 0 30.833 3.5 46.5 10.5s34.834 21.833 57.501 44.5z" />
    <glyph glyph-name="hungarumlaut" unicode="&#x2dd;" horiz-adv-x="500" 
d="M456 761h-112l-76 -162h76zM271 761h-113l-75 -162h77z" />
    <glyph glyph-name="Delta" unicode="&#x394;" horiz-adv-x="619" 
d="M613 0l-260 712h-87l-261 -712h608zM472 92h-323l162 459z" />
    <glyph glyph-name="Omega" unicode="&#x3a9;" horiz-adv-x="647" 
d="M579 0l-0.00683594 96h-70c11.333 10 20.5 20 27.5 30s13.167 20.333 18.5 31c12 26.667 19 57.167 21 91.5s3 70.166 3 107.499c0 34 -0.333008 64.833 -1 92.5s-3 52.834 -7 75.501s-10.667 43.667 -20 63s-22.666 37.666 -39.999 54.999
c-24.667 24.667 -52.667 43.5 -84 56.5s-66 19.5 -104 19.5s-72.5 -6.5 -103.5 -19.5s-58.833 -31.833 -83.5 -56.5c-17.333 -17.333 -30.666 -35.666 -39.999 -54.999s-16.166 -40.333 -20.499 -63s-6.83301 -47.834 -7.5 -75.501s-1 -58.5 -1 -92.5
c0 -37.333 1.16699 -73.166 3.5 -107.499s9.5 -64.833 21.5 -91.5c5.33301 -10.667 11.333 -21 18 -31s15.667 -20 27 -30h-70v-96h207v87c-15.333 7.33301 -28.833 15.666 -40.5 24.999s-22.167 21 -31.5 35c-5.33301 8 -9.66602 17.667 -12.999 29s-6 25 -8 41
s-3.33301 35 -4 57s-1 47.667 -1 77c0 36 0.5 66.167 1.5 90.5s3 44.833 6 61.5s7.33301 30.667 13 42s12.834 21.666 21.501 30.999c13.333 13.333 28.833 24.166 46.5 32.499s37.167 12.5 58.5 12.5s41 -4.16699 59 -12.5s33.667 -19.166 47 -32.499
c8.66699 -9.33301 15.834 -19.666 21.501 -30.999s10 -25.333 13 -42s5 -37.167 6 -61.5s1.5 -54.5 1.5 -90.5c0 -29.333 -0.5 -55 -1.5 -77s-2.5 -41 -4.5 -57s-4.66699 -29.667 -8 -41s-7.66602 -21 -12.999 -29c-9.33301 -14 -19.833 -25.667 -31.5 -35
s-25.167 -17.666 -40.5 -24.999v-87h207z" />
    <glyph glyph-name="pi" unicode="&#x3c0;" horiz-adv-x="591" 
d="M503 0v507h-415v-507h101v412h214v-412h100z" />
    <glyph glyph-name="endash" unicode="&#x2013;" 
d="M482 230v95h-431v-95h431z" />
    <glyph glyph-name="emdash" unicode="&#x2014;" horiz-adv-x="972" 
d="M905 231v97h-838v-97h838z" />
    <glyph glyph-name="quoteleft" unicode="&#x2018;" horiz-adv-x="268" 
d="M190 608v197l-112 -93v-104h112z" />
    <glyph glyph-name="quoteright" unicode="&#x2019;" horiz-adv-x="268" 
d="M190 607v105h-112v-196z" />
    <glyph glyph-name="quotesinglbase" unicode="&#x201a;" horiz-adv-x="267" 
d="M190 0v105h-112v-197z" />
    <glyph glyph-name="quotedblleft" unicode="&#x201c;" horiz-adv-x="459" 
d="M381 608v197l-112 -93v-104h112zM190 608v197l-112 -93v-104h112z" />
    <glyph glyph-name="quotedblright" unicode="&#x201d;" horiz-adv-x="459" 
d="M381 607v105h-112v-196zM190 607v105h-112v-196z" />
    <glyph glyph-name="quotedblbase" unicode="&#x201e;" horiz-adv-x="460" 
d="M381 0v105h-112v-197zM190 0v105h-112v-197z" />
    <glyph glyph-name="dagger" unicode="&#x2020;" horiz-adv-x="591" 
d="M526 427v91h-180v194h-102v-194h-179v-91h179v-427h102v427h180z" />
    <glyph glyph-name="daggerdbl" unicode="&#x2021;" horiz-adv-x="591" 
d="M526 -11v92h-180v346h180v91h-180v194h-102v-194h-179v-91h179v-346h-179v-92h179v-194h102v194h180z" />
    <glyph glyph-name="bullet" unicode="&#x2022;" horiz-adv-x="512" 
d="M419 334c0 22.667 -4.33301 43.834 -13 63.501s-20.334 36.834 -35.001 51.501s-31.834 26.334 -51.501 35.001s-40.834 13 -63.501 13s-43.834 -4.33301 -63.501 -13s-36.834 -20.334 -51.501 -35.001s-26.334 -31.834 -35.001 -51.501s-13 -40.834 -13 -63.501
s4.33301 -43.834 13 -63.501s20.334 -36.834 35.001 -51.501s31.834 -26.334 51.501 -35.001s40.834 -13 63.501 -13s43.834 4.33301 63.501 13s36.834 20.334 51.501 35.001s26.334 31.834 35.001 51.501s13 40.834 13 63.501z" />
    <glyph glyph-name="ellipsis" unicode="&#x2026;" horiz-adv-x="803" 
d="M725 0v117h-117v-117h117zM460 0v117h-117v-117h117zM195 0v117h-117v-117h117z" />
    <glyph glyph-name="perthousand" unicode="&#x2030;" horiz-adv-x="1196" 
d="M784 130v101c0 21.333 -3.66699 40.5 -11 57.5s-17.333 31.333 -30 43s-27.5 20.667 -44.5 27s-35.167 9.5 -54.5 9.5s-37.5 -3.16699 -54.5 -9.5s-31.833 -15.333 -44.5 -27s-22.667 -26 -30 -43s-11 -36.167 -11 -57.5v-101c0 -21.333 3.66699 -40.5 11 -57.5
s17.333 -31.333 30 -43s27.5 -20.667 44.5 -27s35.167 -9.5 54.5 -9.5s37.5 3.16699 54.5 9.5s31.833 15.333 44.5 27s22.667 26 30 43s11 36.167 11 57.5zM629 712h-81l-336 -712h82zM338 481v101c0 21.333 -3.66699 40.5 -11 57.5s-17.333 31.333 -30 43
s-27.5 20.667 -44.5 27s-35.167 9.5 -54.5 9.5s-37.5 -3.16699 -54.5 -9.5s-31.833 -15.333 -44.5 -27s-22.667 -26 -30 -43s-11 -36.167 -11 -57.5v-101c0 -21.333 3.66699 -40.5 11 -57.5s17.333 -31.333 30 -43s27.5 -20.5 44.5 -26.5s35.167 -9 54.5 -9s37.5 3 54.5 9
s31.833 14.833 44.5 26.5s22.667 26 30 43s11 36.167 11 57.5zM707 133c0 -22.667 -5.16699 -40.3301 -15.5 -52.9971s-26.166 -19 -47.499 -19s-37.166 6.16699 -47.499 18.5s-15.5 30.166 -15.5 53.499v95c0 23.333 5.16699 41.166 15.5 53.499s26.166 18.5 47.499 18.5
s37.166 -6.33301 47.499 -19s15.5 -30.334 15.5 -53.001v-95zM261 484.004c0 -22.667 -5.16602 -40.165 -15.499 -52.498s-26.166 -18.5 -47.499 -18.5c-42 0 -63 23.667 -63 71v95c0 23.333 5.16699 41.166 15.5 53.499s26.166 18.5 47.499 18.5
s37.166 -6.33301 47.499 -19s15.5 -30.334 15.5 -53.001v-95zM1138 130.006v101c0 21.333 -3.66699 40.5 -11 57.5s-17.333 31.333 -30 43s-27.5 20.667 -44.5 27s-35.167 9.5 -54.5 9.5s-37.5 -3.16699 -54.5 -9.5s-31.833 -15.333 -44.5 -27s-22.667 -26 -30 -43
s-11 -36.167 -11 -57.5v-101c0 -21.333 3.66699 -40.5 11 -57.5s17.333 -31.333 30 -43s27.5 -20.667 44.5 -27s35.167 -9.5 54.5 -9.5s37.5 3.16699 54.5 9.5s31.833 15.333 44.5 27s22.667 26 30 43s11 36.167 11 57.5zM1061 133.006
c0 -22.667 -5.16699 -40.3301 -15.5 -52.9971s-26.166 -19 -47.499 -19s-37.166 6.16699 -47.499 18.5s-15.5 30.166 -15.5 53.499v95c0 23.333 5.16699 41.166 15.5 53.499s26.166 18.5 47.499 18.5s37.166 -6.33301 47.499 -19s15.5 -30.334 15.5 -53.001v-95z" />
    <glyph glyph-name="guilsinglleft" unicode="&#x2039;" horiz-adv-x="339" 
d="M267 42v123l-107 107l107 106v123l-230 -229z" />
    <glyph glyph-name="guilsinglright" unicode="&#x203a;" horiz-adv-x="339" 
d="M303 272l-231 229v-123l108 -106l-108 -107v-123z" />
    <glyph glyph-name="trademark" unicode="&#x2122;" horiz-adv-x="883" 
d="M822 285v427h-77l-126 -243l-125 243h-77v-427h77v279l90 -179h71l90 179v-279h77zM346 643v69h-305v-69h114v-358h76v358h115z" />
    <glyph glyph-name="partialdiff" unicode="&#x2202;" horiz-adv-x="549" 
d="M468 249l0.00195312 242.001c0 33.333 -4.5 63.833 -13.5 91.5s-22.667 51.5 -41 71.5s-41 35.667 -68 47s-58.5 17 -94.5 17c-38.667 0 -71.334 -5 -98.001 -15s-53.334 -27.333 -80.001 -52l64 -64c16 15.333 32 26.5 48 33.5s36.667 10.5 62 10.5
c22 0 40.5 -3.66699 55.5 -11s27.333 -16.833 37 -28.5s16.5 -24.834 20.5 -39.501s6 -29 6 -43v-47c-15.333 17.333 -32.166 28.666 -50.499 33.999s-37.166 8 -56.499 8c-33.333 0 -61.5 -5.66699 -84.5 -17s-41.833 -24.666 -56.5 -39.999
c-23.333 -24 -38.666 -52 -45.999 -84s-11 -70 -11 -114c0 -42 3.66699 -79 11 -111s22.666 -60.333 45.999 -85c16 -17.333 36.167 -31.5 60.5 -42.5s53.166 -16.5 86.499 -16.5s62 5.5 86 16.5s44 25.167 60 42.5c23.333 24.667 38.666 53 45.999 85s11 69 11 111z
M366.002 249.001c0 -26.667 -1.66699 -52 -5 -76s-12.333 -43.667 -27 -59c-9.33301 -9.33301 -19.666 -16.5 -30.999 -21.5s-24 -7.5 -38 -7.5c-27.333 0 -50.666 9.66699 -69.999 29c-14.667 15.333 -23.667 35 -27 59s-5 49.333 -5 76s1.66699 52 5 76
s12.333 43.667 27 59c19.333 19.333 42.666 29 69.999 29c14 0 26.667 -2.5 38 -7.5s21.666 -12.167 30.999 -21.5c14.667 -15.333 23.667 -35 27 -59s5 -49.333 5 -76z" />
    <glyph glyph-name="product" unicode="&#x220f;" horiz-adv-x="690" 
d="M598 -205v965h-505v-965h108v869h288v-869h109z" />
    <glyph glyph-name="summation" unicode="&#x2211;" horiz-adv-x="552" 
d="M508 -205v97h-335l164 346v100l-161 325h329v97h-455v-88l193 -383l-195 -406v-88h460z" />
    <glyph glyph-name="minus" unicode="&#x2212;" 
d="M482 230v95h-431v-95h431z" />
    <glyph glyph-name="fraction" unicode="&#x2215;" horiz-adv-x="197" 
d="M307 712h-82l-335 -712h82z" />
    <glyph glyph-name="radical" unicode="&#x221a;" horiz-adv-x="580" 
d="M550 615v97h-172l-163 -518l-99 313h-111l168 -507h84l202 615h91z" />
    <glyph glyph-name="infinity" unicode="&#x221e;" horiz-adv-x="830" 
d="M769 276c0 24.667 -3.83301 47.668 -11.5 69.001s-19 39.833 -34 55.5s-33.333 28 -55 37s-46.5 13.5 -74.5 13.5c-36 0 -67.833 -8.5 -95.5 -25.5s-55.5 -41.833 -83.5 -74.5c-28 32.667 -56.333 57.5 -85 74.5s-60 25.5 -94 25.5c-28 0 -52.833 -4.5 -74.5 -13.5
s-40 -21.333 -55 -37s-26.333 -34.167 -34 -55.5s-11.5 -44.333 -11.5 -69s3.83301 -47.667 11.5 -69s19 -39.833 34 -55.5s33.333 -28 55 -37s46.5 -13.5 74.5 -13.5c34.667 0 66.167 8.5 94.5 25.5s56.5 41.833 84.5 74.5c28 -32.667 56 -57.334 84 -74.001
s59.667 -25 95 -25c28 0 52.833 4.5 74.5 13.5s40 21.333 55 37s26.333 34 34 55s11.5 43.833 11.5 68.5zM671 274.001c0 -24 -7.66699 -43.168 -23 -57.501s-34 -21.5 -56 -21.5c-21.333 0 -40 7.5 -56 22.5s-33.667 33.833 -53 56.5c19.333 22.667 37 41.334 53 56.001
s34.667 22 56 22c22 0 40.667 -7 56 -21s23 -33 23 -57zM347 274c-19.333 -22.667 -37.166 -41.5 -53.499 -56.5s-35.166 -22.5 -56.499 -22.5c-22 0 -40.5 7.16699 -55.5 21.5s-22.5 33.5 -22.5 57.5s7.5 43.167 22.5 57.5s33.5 21.5 55.5 21.5
c21.333 0 40.166 -7.5 56.499 -22.5s34.166 -33.833 53.499 -56.5z" />
    <glyph glyph-name="integral" unicode="&#x222b;" horiz-adv-x="433" 
d="M385 633v87h-57c-50 0 -90 -14.333 -120 -43s-45 -68.334 -45 -119.001v-599c0 -49.333 -23.667 -74 -71 -74h-44v-87h57c50 0 89.833 14.333 119.5 43s44.5 68.334 44.5 119.001v599c0 49.333 24 74 72 74h44z" />
    <glyph glyph-name="approxequal" unicode="&#x2248;" horiz-adv-x="574" 
d="M531 380l-65.002 64c-9.33301 -9.33301 -17.833 -16.833 -25.5 -22.5s-14.667 -10 -21 -13s-12.666 -5 -18.999 -6s-12.833 -1.5 -19.5 -1.5c-14 0 -27.333 2.16699 -40 6.5s-26 10.166 -40 17.499c-20.667 10 -39.5 17.833 -56.5 23.5s-35.167 8.5 -54.5 8.5
c-13.333 0 -25.666 -1.16699 -36.999 -3.5s-22.666 -6.5 -33.999 -12.5s-23.166 -14 -35.499 -24s-25.833 -22.333 -40.5 -37l64 -64c18.667 18.667 34 30.5 46 35.5s25 7.5 39 7.5s27.167 -2.16699 39.5 -6.5s25.5 -10.166 39.5 -17.499
c20.667 -10 39.667 -17.833 57 -23.5s35.666 -8.5 54.999 -8.5c13.333 0 25.666 1.16699 36.999 3.5s22.833 6.5 34.5 12.5s23.667 14 36 24s25.833 22.333 40.5 37zM530.998 178l-63.998 64c-9.33301 -9.33301 -17.833 -17 -25.5 -23s-14.667 -10.5 -21 -13.5
s-12.666 -5 -18.999 -6s-12.833 -1.5 -19.5 -1.5c-14 0 -27.333 2.16699 -40 6.5s-26 10.166 -40 17.499c-20.667 10 -39.5 18 -56.5 24s-35.167 9 -54.5 9c-13.333 0 -25.833 -1.33301 -37.5 -4s-23.167 -7 -34.5 -13s-23.166 -14 -35.499 -24s-25.833 -22.333 -40.5 -37
l64 -64c18.667 18.667 34.167 30.667 46.5 36s25.5 8 39.5 8s27.167 -2.16699 39.5 -6.5s25.5 -10.166 39.5 -17.499c20.667 -10 39.667 -18 57 -24s35.666 -9 54.999 -9c13.333 0 25.666 1.33301 36.999 4s22.666 7 33.999 13s23.166 14 35.499 24s25.833 22.333 40.5 37z
" />
    <glyph glyph-name="notequal" unicode="&#x2260;" horiz-adv-x="571" 
d="M520 133v95h-226l88 99h138v95h-61l61 69l-63 51l-104 -120h-302v-95h226l-88 -99h-138v-95h61l-61 -69l63 -51l103 120h303z" />
    <glyph glyph-name="lessequal" unicode="&#x2264;" horiz-adv-x="1027" 
d="M873 -14l-526 526l487 -1l-92 92h-555v-554l92 -92v487l526 -527z" />
    <glyph glyph-name="greaterequal" unicode="&#x2265;" horiz-adv-x="1027" 
d="M839 49v554h-554l-92 -92l487 2l-527 -527l69 -69l526 527l-1 -487z" />
    <glyph glyph-name="lozenge" unicode="&#x25ca;" horiz-adv-x="642" 
d="M582 346l-261 365l-260 -365l260 -365zM467 346l-146 -208l-146 208l146 207z" />
    <glyph glyph-name="fi" unicode="&#xfb01;" horiz-adv-x="583" 
d="M505 624v91h-109v-91h109zM501 0v498h-102v-498h102zM297 420l-0.000976562 78h-100v73c0 18.667 4.33301 33.167 13 43.5s22.667 15.5 42 15.5h45v87h-63c-24 0 -44.667 -4 -62 -12s-31.666 -18.5 -42.999 -31.5s-19.833 -28 -25.5 -45s-8.5 -34.5 -8.5 -52.5v-78h-58
v-78h58v-420h102v420h100z" />
    <glyph glyph-name="fl" unicode="&#xfb02;" horiz-adv-x="626" 
d="M599 0l0.000976562 87.001h-45c-20.667 0 -35 5 -43 15s-12 24.667 -12 44v566h-102v-572c0 -18.667 2.66699 -36.5 8 -53.5s13.666 -31.833 24.999 -44.5s25.833 -22.834 43.5 -30.501s38.5 -11.5 62.5 -11.5h63zM297.001 420.001l-0.000976562 78h-100v73
c0 18.667 4.33301 33.167 13 43.5s22.667 15.5 42 15.5h45v87h-63c-24 0 -44.667 -4 -62 -12s-31.666 -18.5 -42.999 -31.5s-19.833 -28 -25.5 -45s-8.5 -34.5 -8.5 -52.5v-78h-58v-78h58v-420h102v420h100z" />
    <glyph glyph-name=".null" horiz-adv-x="0" 
 />
    <glyph glyph-name="nonmarkingreturn" horiz-adv-x="240" 
 />
    </font>
</defs>
</svg>
